<svg width="481" height="532" viewBox="0 0 481 532" fill="none" xmlns="http://www.w3.org/2000/svg">
<path d="M466.424 240.869C464.758 238.509 463.093 236.15 461.01 234.262C458.095 230.487 454.764 227.184 451.849 223.409C448.933 220.105 446.435 217.274 443.52 214.443C441.854 212.555 440.188 210.668 438.522 209.252C426.029 196.511 412.286 185.185 397.71 174.804C398.126 173.388 398.543 171.972 398.959 171.5C401.875 163.478 403.54 159.231 403.124 155.928C402.291 152.625 399.792 149.793 393.962 144.131C377.72 129.03 360.229 115.817 343.155 101.188C339.823 98.3568 336.492 93.166 335.659 88.4471C333.993 74.2903 332.744 60.1334 331.911 45.9766V44.5609C331.911 41.7296 331.494 39.3701 331.494 36.5387C331.078 31.8198 329.412 28.9884 326.081 27.1009C319.001 23.7976 311.921 20.4943 304.842 17.663C294.847 13.8878 284.852 10.5846 274.441 8.22511C254.868 3.50617 234.462 0.674805 213.223 0.674805C200.729 0.674805 188.652 1.61859 176.991 3.50617C172.41 4.44996 167.413 4.92185 162.832 5.86564C161.166 6.33753 159.5 6.80943 157.835 6.80943C156.169 7.28132 154.087 7.75321 152.421 8.22511C152.004 8.22511 151.588 8.22511 151.171 8.697C149.922 9.1689 149.089 9.1689 147.84 9.64079C147.007 9.64079 146.174 10.1127 145.341 10.1127C144.092 10.5846 142.426 11.0565 141.177 11.0565C139.927 11.5284 138.678 12.0003 137.429 12.0003C134.93 12.944 132.431 13.8878 129.516 14.8316C128.683 14.8316 127.85 15.3035 127.017 15.7754C126.184 16.2473 125.352 16.2473 124.519 16.7192C123.686 17.1911 122.436 17.663 121.603 17.663H122.02C126.184 19.5506 132.015 22.8538 138.261 27.1009C140.76 28.5165 142.842 29.9322 144.925 31.3479C145.758 32.2917 147.007 32.7636 148.256 33.7074C149.506 34.6512 150.755 35.595 152.004 36.5387C154.503 37.9544 156.585 39.842 159.084 41.7296C160.75 42.6734 162.416 44.089 164.081 45.5047C165.747 46.9204 167.413 47.8642 169.079 49.2799C170.328 50.2237 171.994 51.6394 173.243 52.5831H172.827C174.909 53.9988 176.575 55.8864 178.657 57.774C171.161 56.8302 163.665 56.3583 155.752 56.3583C154.503 56.3583 153.254 56.3583 152.004 56.3583C94.5342 57.3021 41.2286 81.3687 0 121.008V203.589C2.08225 202.174 4.58095 200.286 6.6632 198.87C8.74546 197.455 11.2442 196.039 13.3264 194.623C24.987 187.073 37.4805 180.466 50.8069 175.276C52.8892 174.332 54.9714 173.86 56.6372 172.916C59.1359 171.972 61.6346 171.029 64.1333 170.085C66.632 169.141 68.7143 168.669 71.213 167.725C71.6294 167.725 71.6294 167.725 72.0459 167.725C74.5446 167.253 77.0433 166.31 79.9585 165.838C82.4572 164.894 85.3723 164.422 87.871 163.95C90.3697 163.478 92.8684 163.006 94.9507 162.534C96.2 162.063 97.0329 162.063 98.2823 162.063C100.365 161.591 102.03 161.591 104.113 161.119C109.526 160.175 114.94 159.703 120.771 159.703C121.603 159.703 122.853 159.703 123.686 159.703C89.1204 171.5 57.8866 192.264 31.6502 219.162C28.7351 221.993 26.2364 224.824 23.3212 228.128C14.9922 237.566 7.4961 247.475 0.41645 257.857V449.918C2.91515 456.996 6.24675 463.131 10.4113 469.266C15.4087 477.288 21.6554 483.894 28.7351 490.029C28.3186 483.422 27.9022 476.816 27.9022 470.209C27.9022 466.434 27.9022 462.659 27.9022 459.356C30.8173 375.83 66.2156 301.743 120.354 253.138C119.938 254.554 119.105 255.969 118.688 257.385C116.606 262.576 114.524 267.295 112.858 272.486C111.192 276.733 109.526 280.98 108.277 285.227C107.444 287.586 106.611 289.474 106.195 291.833C104.945 295.137 104.113 298.44 103.28 301.743C102.863 303.631 102.03 305.046 101.614 306.934C101.197 308.35 100.781 309.765 100.365 311.653C99.5316 314.484 98.6987 317.316 98.2823 320.147C96.6165 326.754 94.9507 333.36 93.7013 339.967C87.4546 369.696 84.5394 400.369 84.5394 431.986C84.5394 466.434 88.2875 499.939 95.3671 532.027H189.485C175.742 488.141 168.246 441.424 168.246 392.347C168.246 363.561 170.745 335.248 175.742 307.878C178.241 391.403 201.978 468.322 241.125 532.027H398.543C328.996 507.489 272.358 451.333 240.708 378.662C240.708 378.19 240.708 378.19 240.292 378.19C237.793 372.055 234.878 365.449 232.796 358.842C229.881 350.348 226.965 341.854 224.883 333.36C224.05 330.057 223.217 326.754 222.384 323.45C221.552 320.619 221.135 317.316 220.302 314.484C219.469 311.653 219.053 308.822 218.636 306.462C218.636 305.99 218.22 305.046 218.22 304.574C217.803 301.743 217.387 298.912 216.971 296.08C216.554 292.777 216.138 289.946 215.721 286.643C215.305 284.283 214.888 281.924 214.888 279.092C214.472 278.148 214.472 277.205 214.472 275.789C214.055 271.07 213.639 266.823 213.223 262.576C213.223 262.576 213.223 262.576 213.223 262.104C213.223 259.745 213.223 257.857 212.806 255.969C212.806 252.194 212.806 248.419 212.806 245.116V241.813C212.806 241.341 212.806 241.341 212.806 240.869V239.925C212.806 235.206 212.806 230.487 213.223 225.768C229.881 255.498 249.037 282.867 270.276 308.35C272.358 306.934 274.857 305.518 276.939 304.103C280.271 301.743 284.019 299.856 288.184 297.496C300.677 291.361 317.752 285.227 333.993 282.395C339.823 281.452 345.237 280.98 350.235 280.508C351.9 280.508 353.983 280.508 355.649 280.508H356.898C358.147 280.508 360.229 280.508 361.895 281.924C363.561 282.867 364.394 285.227 365.227 286.643C371.474 306.934 382.718 319.203 397.294 324.866C403.54 327.225 410.62 328.641 418.533 328.641C418.949 328.641 419.365 328.641 419.365 328.641C420.198 328.641 420.615 328.641 421.031 328.641C423.946 328.641 426.445 329.585 429.777 329.585C428.527 332.416 426.445 334.776 423.53 336.663C422.281 337.607 420.615 339.023 418.949 339.495C412.702 343.27 404.373 345.157 396.461 345.157C393.962 345.157 391.463 345.157 389.381 344.214C391.463 346.101 393.962 347.517 396.461 348.933C403.957 352.708 413.119 354.123 422.281 353.651C423.946 353.651 425.612 353.18 427.694 353.18C441.437 350.82 454.347 343.742 461.427 332.416C462.26 331.472 462.676 330.529 463.093 329.585C466.424 323.45 467.674 316.844 467.257 310.237C466.424 297.024 458.928 285.227 446.435 280.508C445.602 280.036 444.769 280.036 444.352 279.564H443.936C443.52 279.564 443.103 279.092 443.103 279.092C442.687 279.092 442.687 278.62 442.687 278.62C442.27 278.148 442.27 277.677 442.27 277.205C442.27 276.733 442.27 276.261 442.687 275.789C442.687 275.789 442.687 275.317 443.103 275.317C443.103 275.317 443.103 274.845 443.52 274.845C445.185 272.486 448.1 270.126 451.432 268.239C452.681 267.295 453.514 266.823 454.764 266.351C459.761 263.992 465.175 262.104 470.589 261.632C471.838 261.632 473.088 261.16 473.92 261.16C475.17 261.16 476.419 260.688 477.668 260.688H478.085C478.918 260.688 479.751 260.688 480.584 260.688C476.419 255.026 471.422 247.947 466.424 240.869ZM362.312 225.296C343.571 204.533 322.332 187.545 298.595 174.332C296.929 173.388 295.263 172.444 293.597 171.5C294.43 171.5 295.263 171.5 296.513 171.5C304.842 171.029 319.834 170.085 333.16 169.613C340.656 169.141 347.736 168.669 352.733 168.669C354.816 168.669 356.481 168.669 357.314 168.669L355.232 172.916L348.569 187.073V187.545C349.818 189.432 351.484 191.792 353.15 194.151C356.898 200.758 360.229 207.364 362.312 214.443C363.145 217.746 364.394 221.521 364.394 225.296C364.394 226.24 364.81 226.712 364.81 227.656C363.561 227.184 363.145 226.24 362.312 225.296Z" fill="url(#paint0_linear_101_45131)" fill-opacity="0.06"/>
<defs>
<linearGradient id="paint0_linear_101_45131" x1="480.584" y1="266.351" x2="-2.05006e-05" y2="266.351" gradientUnits="userSpaceOnUse">
<stop stop-color="white"/>
<stop offset="1" stop-color="white" stop-opacity="0"/>
</linearGradient>
</defs>
</svg>
