<svg width="132" height="35" viewBox="0 0 132 35" fill="none" xmlns="http://www.w3.org/2000/svg">
<path d="M112.719 23.4082C112.749 23.7203 112.794 24.0324 112.85 24.3399C112.819 24.1665 112.794 23.9932 112.769 23.8198C112.749 23.6856 112.729 23.5469 112.719 23.4082Z" fill="#DB1F26"/>
<path d="M113.859 27.8274C113.662 27.3665 113.491 26.8956 113.344 26.4102C113.49 26.8911 113.667 27.3665 113.859 27.8274Z" fill="#DB1F26"/>
<path d="M106.615 16.7793C106.257 16.7939 105.903 16.824 105.555 16.8633C105.904 16.8185 106.257 16.7939 106.615 16.7793Z" fill="#ED1C24"/>
<path opacity="0.1" d="M127.638 23.6062C127.593 23.5916 127.542 23.5761 127.492 23.567C127.482 23.567 127.472 23.567 127.467 23.5624C127.442 23.5578 127.422 23.5478 127.407 23.5378C127.392 23.5332 127.382 23.5232 127.371 23.5076C127.346 23.483 127.336 23.4529 127.336 23.4182C127.336 23.3881 127.341 23.3635 127.356 23.3443C127.361 23.3343 127.367 23.3297 127.371 23.3242C127.462 23.4182 127.553 23.5122 127.639 23.6071L127.638 23.6062Z" fill="#BCBEC0"/>
<path d="M14.5 0.00195312V1.64093C14.5 2.14467 14.9166 2.5535 15.4289 2.5535H19.0542V14.7208C19.0542 14.9225 19.2253 15.084 19.4308 15.084H22.1607V2.5535H25.6494C26.2305 2.5535 26.7103 2.089 26.7103 1.51226V0.00195312H14.5Z" fill="#DA1F27"/>
<path d="M41.436 12.1875C40.6949 11.0139 40.1082 10.1935 39.674 9.73361C39.236 9.27368 38.6828 8.84659 38.0106 8.46514C39.3616 8.26802 40.3695 7.8017 41.0492 7.06069C41.7279 6.32516 42.0692 5.38704 42.0692 4.24632C42.0692 3.35383 41.8414 2.55624 41.3969 1.85995C40.9515 1.16913 40.3537 0.686381 39.607 0.411697C38.866 0.141576 37.6749 0.00195312 36.0328 0.00195312H29.5V15.1424H31.5521C32.1342 15.1424 32.6018 14.6816 32.6018 14.1085V8.82469H33.235C33.9464 8.82469 34.4661 8.88036 34.7962 8.9926C35.1216 9.10576 35.435 9.3193 35.726 9.62137C35.8004 9.70076 35.8915 9.80753 35.9938 9.9362C36.8539 11.0085 37.4926 12.2395 37.9194 13.5354L38.1649 14.2709C38.3369 14.7938 38.826 15.1424 39.3857 15.1424H43.3188L41.4378 12.1875H41.436ZM37.6851 6.22295C37.3141 6.34615 36.3852 6.4082 34.8975 6.4082H32.6V2.5608H35.0231C36.283 2.5608 37.0343 2.58453 37.2853 2.61738C37.7874 2.69586 38.1807 2.89845 38.4541 3.2069C38.733 3.52083 38.8706 3.93696 38.8706 4.44252C38.8706 4.8979 38.7628 5.27935 38.5573 5.57685C38.3462 5.87982 38.0561 6.09337 37.6851 6.22295Z" fill="#DA1F27"/>
<path d="M57.3657 2.03031C56.0435 0.693393 54.2834 0.0253906 52.0853 0.0253906C50.8728 0.0253906 49.7989 0.216118 48.8691 0.602136C48.1717 0.890508 47.5292 1.32945 46.9434 1.92171C46.3567 2.51397 45.8918 3.18197 45.5534 3.92663C45.095 4.94232 44.8672 6.19163 44.8672 7.68551C44.8672 10.0171 45.5255 11.8468 46.8328 13.1728C48.1448 14.5033 49.9105 15.1668 52.1299 15.1668C54.3494 15.1668 56.0705 14.4988 57.3778 13.1682C58.6897 11.8313 59.3425 9.97881 59.3425 7.61616C59.3425 5.25351 58.6842 3.37361 57.3666 2.03122M55.0756 11.3696C54.3066 12.2173 53.321 12.6408 52.1197 12.6408C50.9184 12.6408 49.9281 12.2119 49.148 11.3586C48.367 10.4999 47.9746 9.2451 47.9746 7.58878C47.9746 5.93246 48.3558 4.63844 49.1155 3.80161C49.8789 2.97026 50.8747 2.5523 52.1206 2.5523C53.3666 2.5523 54.3568 2.9657 55.1044 3.79066C55.8566 4.61654 56.2332 5.86676 56.2332 7.54498C56.2332 9.2232 55.8464 10.5172 55.0765 11.3696" fill="#DA1F27"/>
<path d="M71.4802 0.0546875V10.1304L65.6094 0.731815C65.3462 0.312032 64.8795 0.0546875 64.3783 0.0546875H62.1719V15.1377H65.0506V5.30288L70.7856 14.4049C71.0711 14.8639 71.5778 15.1377 72.1255 15.1377H74.3598V0.0546875H71.4811H71.4802Z" fill="#DA1F27"/>
<path d="M85.9757 7.04062C85.2123 7.04062 84.5977 7.64382 84.5977 8.39304V9.50638H88.0454V11.3635C87.5908 11.7112 87.0496 12.0096 86.4127 12.2487C85.7813 12.4878 85.1454 12.6119 84.515 12.6119C83.243 12.6119 82.2081 12.1775 81.4215 11.3087C80.6367 10.4399 80.2434 9.13588 80.2434 7.40473C80.2434 5.78583 80.6302 4.57485 81.4112 3.75445C82.1858 2.93496 83.2262 2.53343 84.5484 2.52248C85.5024 2.51426 86.0938 2.59183 86.6702 3.0107C86.6702 3.0107 87.0115 3.21147 87.3044 3.78274C87.5917 4.34305 88.131 4.57393 88.8218 4.54747L90.6638 4.46625C90.661 3.38394 90.3718 2.58179 89.6094 1.71211C88.382 0.31314 86.4025 0.00195312 84.5494 0.00195312C83.1221 0.00195312 81.9319 0.241047 80.9752 0.724709C79.719 1.36077 78.7678 2.27243 78.1197 3.45603C77.467 4.63964 77.1406 5.99207 77.1406 7.51789C77.1406 8.92416 77.4335 10.2227 78.0146 11.4173C78.6014 12.6119 79.4689 13.5299 80.6321 14.1751C81.7888 14.8166 83.15 15.1424 84.7093 15.1424C85.9385 15.1424 87.1491 14.9143 88.3504 14.4525C89.5452 13.9962 90.4592 13.4752 91.0952 12.8719V7.0397H85.9766L85.9757 7.04062Z" fill="#DA1F27"/>
<path d="M41.8646 27.4429C41.3495 26.7968 40.6177 26.3377 39.6638 26.0676C40.3379 25.7765 40.8753 25.333 41.2695 24.7389C41.6638 24.1494 41.8646 23.4987 41.8646 22.7915C41.8646 22.1354 41.7047 21.5458 41.3839 21.0193C41.0641 20.4918 40.6642 20.0711 40.1779 19.7563C39.6982 19.4433 39.1552 19.2288 38.5433 19.1339C37.9325 19.0326 37.0064 18.9824 35.7651 18.9824H29.5V34.1074H34.839C36.8576 34.091 38.1259 34.0563 38.6577 34.0006C39.4973 33.9167 40.2068 33.6757 40.7777 33.2879C41.3495 32.8955 41.807 32.379 42.1389 31.7283C42.4709 31.0776 42.6364 30.4106 42.6364 29.7206C42.6364 28.851 42.3788 28.0881 41.8646 27.4429ZM32.6669 21.5011H34.4847C35.9771 21.5011 36.8743 21.5175 37.1886 21.5522C37.7195 21.6143 38.1147 21.7877 38.3825 22.0852C38.6512 22.3763 38.7832 22.7523 38.7832 23.2241C38.7832 23.6959 38.6289 24.1056 38.3202 24.4031C38.005 24.7052 37.5828 24.8849 37.0389 24.947C36.7423 24.9808 35.9761 24.9972 34.7413 24.9972H32.666V21.502L32.6669 21.5011ZM38.9153 30.8595C38.6242 31.1798 38.2411 31.3815 37.766 31.4655C37.4629 31.5275 36.7367 31.5604 35.594 31.5604H32.6669V27.5159H35.223C36.6633 27.5159 37.6005 27.5889 38.0292 27.7285C38.4643 27.8745 38.7897 28.1045 39.0185 28.4239C39.2472 28.7378 39.3616 29.1247 39.3616 29.5801C39.3616 30.1121 39.2128 30.5392 38.9153 30.8586" fill="#DA1F27"/>
<path d="M57.5725 20.9881C56.2298 19.6485 54.4437 18.9805 52.2112 18.9805C50.9783 18.9805 49.8895 19.1758 48.9439 19.5609C48.2307 19.8429 47.5789 20.2827 46.9819 20.8741C46.3841 21.4654 45.9145 22.138 45.5714 22.8817C45.1075 23.891 44.875 25.144 44.875 26.6306C44.875 28.9576 45.5435 30.7864 46.8704 32.1151C48.2028 33.4438 49.9927 34.1054 52.2484 34.1054C54.5041 34.1054 56.2549 33.4392 57.5883 32.1042C58.9207 30.7691 59.5837 28.9248 59.5837 26.5649C59.5837 24.2049 58.9151 22.3223 57.5716 20.9872M55.2442 30.3073C54.4651 31.1533 53.459 31.5822 52.2428 31.5822C51.0266 31.5822 50.0159 31.1533 49.22 30.2964C48.4297 29.444 48.0308 28.1865 48.0308 26.532C48.0308 24.8775 48.4176 23.5917 49.1921 22.7567C49.9611 21.9208 50.9773 21.5028 52.2437 21.5028C53.5101 21.5028 54.5162 21.9153 55.2786 22.7403C56.0411 23.5643 56.4223 24.8182 56.4223 26.4946C56.4223 28.171 56.0299 29.4614 55.2452 30.3082" fill="#DA1F27"/>
<path d="M74.8201 23.0978C74.477 22.1313 73.973 21.3164 73.3203 20.6484C72.662 19.9804 71.8726 19.5141 70.9511 19.2503C70.264 19.0587 69.2682 18.9629 67.9637 18.9629H62.1719V34.107H68.1357C69.3026 34.107 70.2417 34.0002 70.94 33.7867C71.8791 33.4947 72.6164 33.0959 73.166 32.5785C73.8986 31.8931 74.4547 31.0052 74.8498 29.9001C75.1706 29.0012 75.3296 27.928 75.3296 26.6805C75.3296 25.2596 75.1585 24.0687 74.821 23.0968M71.7303 29.3151C71.5183 29.995 71.2431 30.4841 70.9056 30.7807C70.5625 31.0727 70.1385 31.2863 69.6243 31.4094C69.2291 31.5053 68.5941 31.5555 67.707 31.5555H65.3379V21.5236H66.7633C68.0566 21.5236 68.9269 21.5738 69.3677 21.6696C69.9628 21.7928 70.4481 22.0291 70.8321 22.3832C71.2208 22.7318 71.5193 23.22 71.7313 23.8488C71.9479 24.473 72.0576 25.371 72.0576 26.5454C72.0576 27.7199 71.9488 28.6407 71.7313 29.3142" fill="#DA1F27"/>
<path d="M87.5896 18.9823C87.0699 18.9823 86.5957 19.2734 86.3725 19.7279L85.4065 21.731L83.8332 24.9678L81.3413 19.7169C81.1247 19.2679 80.6616 18.9814 80.1474 18.9814H76.4375L82.1763 27.7384V33.2914C82.1763 33.7404 82.5473 34.1054 83.0057 34.1054H85.3321V27.7603L91.0997 18.9805H87.5896V18.9823Z" fill="#DA1F27"/>
<path d="M11.7581 8.26607C11.3611 7.63913 10.8153 7.14634 10.1142 6.78314C9.41496 6.42085 8.33359 6.0686 6.87751 5.73277C5.41585 5.39238 4.49533 5.06659 4.11504 4.75267C3.8175 4.50901 3.67431 4.21699 3.67431 3.87021C3.67431 3.4915 3.82866 3.18761 4.14851 2.96038C4.63945 2.60904 5.32286 2.43565 6.1941 2.43565C7.06533 2.43565 7.67714 2.59809 8.09649 2.92844C8.31685 3.09635 8.49352 3.32267 8.63206 3.59918C8.90728 4.15129 9.45308 4.52453 10.0816 4.49806L11.9236 4.41684C11.8799 3.07445 11.3843 2.00218 10.4405 1.20186C9.49771 0.400619 8.09091 0 6.22664 0C5.08576 0 4.11039 0.167913 3.29867 0.503739C2.49345 0.844128 1.87606 1.33692 1.44555 1.98119C1.01598 2.63003 0.800266 3.32267 0.800266 4.07007C0.800266 5.22264 1.25773 6.20183 2.16802 7.00307C2.81888 7.57708 3.94953 8.05344 5.55997 8.44858C6.80591 8.75156 7.61113 8.96327 7.95795 9.08282C8.47585 9.26077 8.83476 9.47249 9.03839 9.71523C9.24759 9.95889 9.34708 10.2518 9.34708 10.5977C9.34708 11.1343 9.1044 11.6052 8.61346 12.0049C8.12252 12.4055 7.39448 12.6053 6.42934 12.6053C5.5144 12.6053 4.79194 12.3836 4.25172 11.9291C3.93745 11.6645 3.68361 11.3122 3.49579 10.8742C3.23079 10.2628 2.61898 9.86763 1.94114 9.92695L0.265625 10.0894C0.459026 11.7229 1.05968 12.9631 2.06853 13.8172C3.0783 14.6678 4.51672 15.0948 6.39773 15.0948C7.6883 15.0948 8.76781 14.9169 9.63439 14.5655C10.5 14.2078 11.1677 13.6667 11.6409 12.9357C12.1151 12.2056 12.3522 11.4263 12.3522 10.5867C12.3522 9.66687 12.1542 8.89301 11.7562 8.26516" fill="#DA1F27"/>
<path d="M103.912 13.55C103.791 13.5646 103.669 13.5801 103.549 13.5947C103.478 13.5993 103.407 13.6093 103.337 13.6248C103.185 13.6495 103.029 13.6741 102.872 13.6987C102.7 13.7334 102.533 13.7635 102.362 13.8028C102.19 13.8374 102.024 13.8767 101.857 13.9168C101.842 13.9214 101.827 13.9269 101.812 13.9269C101.66 13.9661 101.509 14.0063 101.357 14.051C101.195 14.1003 101.029 14.145 100.867 14.1997C100.736 14.239 100.605 14.2837 100.478 14.3284C99.6405 14.6204 98.8372 14.9827 98.0747 15.4034C97.9287 15.4828 97.7818 15.5668 97.6405 15.6507C97.4945 15.7347 97.3532 15.8241 97.2109 15.9135V18.9113C97.66 18.3218 98.1547 17.767 98.6903 17.2514C98.8623 17.0825 99.0334 16.9146 99.2156 16.7604C100.902 15.2592 102.922 14.1194 105.152 13.4551C105.092 13.4551 105.032 13.4596 104.971 13.4651C104.613 13.4797 104.259 13.5098 103.911 13.5491L103.912 13.55Z" fill="#DB1F26"/>
<path d="M120.092 14.2272L120.219 13.9844C120.148 13.9799 120.042 13.9844 119.911 13.9844C119.603 13.9945 119.149 14.0191 118.654 14.0392C117.806 14.0784 116.847 14.1387 116.302 14.1533C116.236 14.1533 116.181 14.1578 116.125 14.1578C116.236 14.2071 116.342 14.2573 116.449 14.3066C117.968 15.0248 119.351 15.9766 120.548 17.121C120.598 17.1657 120.644 17.215 120.694 17.2597C120.689 17.2204 120.684 17.1803 120.674 17.141C120.649 16.9229 120.593 16.7194 120.528 16.5269C120.386 16.1354 120.174 15.774 119.942 15.4017C119.841 15.2675 119.74 15.1489 119.659 15.0403L119.669 15.0102L120.093 14.2272H120.092Z" fill="#DB1F26"/>
<path d="M108 26.3669C108 29.0827 108.48 31.6836 109.363 34.1064H112.7C110.171 30.5684 108.636 26.3021 108.484 21.6836C108.166 23.1948 108 24.7608 108 26.366V26.3669Z" fill="#DB1F26"/>
<path d="M98.9785 30.0689C98.9739 30.2669 98.9683 30.4704 98.9683 30.673C98.9683 31.0399 98.9831 31.4012 99.0138 31.7635C98.5647 31.4414 98.1705 31.0545 97.8423 30.6192C97.5903 30.2925 97.3774 29.9402 97.2109 29.5588V31.9424C97.2109 31.9625 97.2109 31.9871 97.2156 32.0072C97.2109 32.0318 97.2109 32.0519 97.2109 32.0765C97.2109 33.0475 97.9129 33.8652 98.8418 34.0632C98.852 34.0678 98.8567 34.0678 98.8669 34.0678C98.9227 34.0824 98.9776 34.0979 99.0334 34.107H103.289C102.834 32.3384 102.593 30.4795 102.593 28.5723C102.593 26.8183 102.794 25.1091 103.183 23.4683C103.269 23.1014 103.364 22.7345 103.471 22.3732C103.517 22.2144 103.562 22.0556 103.613 21.8977C103.638 21.8083 103.668 21.7243 103.698 21.6404C103.723 21.5464 103.759 21.4469 103.794 21.3529C103.854 21.1695 103.92 20.9861 103.991 20.8026C104.037 20.674 104.082 20.5499 104.137 20.4257C104.228 20.183 104.324 19.9448 104.43 19.7075C104.551 19.4247 104.682 19.1427 104.819 18.8652C104.849 18.7913 104.889 18.7165 104.925 18.6426C101.446 21.3283 99.1645 25.4358 98.9776 30.0689H98.9785Z" fill="#DB1F26"/>
<path d="M130.694 0.160741C130.447 0.0585327 130.176 0.00195312 129.892 0.00195312H99.3216C99.2509 0.00195312 99.1747 0.00742861 99.104 0.0119915C98.1045 0.0913852 97.3021 0.878934 97.2212 1.85995C97.2165 1.9293 97.2109 2.00413 97.2109 2.07349V11.3443C99.8665 9.13953 103.29 7.79622 107.02 7.74694C107.101 7.74238 107.178 7.74238 107.258 7.74238C107.753 7.74238 108.242 7.76702 108.728 7.81174C108.601 7.71227 108.475 7.61827 108.349 7.52884H108.364C108.278 7.46952 108.192 7.41021 108.101 7.35089C108 7.28153 107.899 7.21218 107.793 7.14282C107.693 7.07347 107.587 7.0032 107.481 6.93932C107.329 6.83985 107.172 6.74585 107.02 6.65642C106.94 6.60258 106.854 6.55239 106.768 6.50859C106.698 6.46843 106.627 6.42919 106.561 6.38904C106.42 6.30508 106.274 6.22569 106.122 6.1463C105.713 5.92819 105.345 5.74476 105.067 5.63617C105.057 5.63069 105.052 5.62613 105.042 5.62613C105.098 5.60605 105.158 5.58689 105.218 5.56681C105.269 5.55221 105.324 5.53214 105.38 5.51753C105.43 5.50202 105.481 5.48286 105.536 5.47282C105.728 5.41806 105.895 5.36878 106.052 5.32407C106.137 5.29943 106.218 5.27388 106.304 5.25928C106.384 5.2392 106.476 5.22004 106.567 5.1954C106.622 5.17988 106.677 5.16984 106.738 5.15524C106.814 5.13517 106.885 5.12057 106.96 5.10596C106.985 5.10049 107.006 5.09593 107.031 5.09136C107.147 5.06125 107.269 5.03661 107.384 5.01653C107.49 4.99646 107.596 4.97182 107.708 4.95265C108.005 4.8979 108.313 4.85318 108.616 4.81394C109.384 4.71903 110.166 4.66975 110.959 4.66975C112.312 4.66975 113.63 4.81394 114.897 5.08589C115.564 5.2246 116.214 5.40346 116.85 5.61609C117.315 5.7694 117.77 5.9437 118.219 6.13169C118.441 6.24577 118.562 6.38448 118.577 6.65642C118.587 6.80061 118.593 6.94388 118.603 7.09263L118.608 7.1775C118.658 7.96505 118.729 8.75807 118.84 9.54106C118.88 9.79293 119.102 10.0713 119.314 10.2346C120.395 11.0368 121.525 11.775 122.581 12.6128C122.955 12.9048 123.131 13.0691 123.172 13.2571V13.2616C123.212 13.4606 123.106 13.6878 122.909 14.1295C122.894 14.1687 122.859 14.2335 122.834 14.3129C123.767 14.8723 124.651 15.5065 125.464 16.2156C125.575 16.3096 125.681 16.4082 125.792 16.5076C125.974 16.6664 126.15 16.8343 126.327 17.0077C126.524 17.2067 126.721 17.4047 126.913 17.6073C127.023 17.7314 127.14 17.8555 127.251 17.9842C127.579 18.3611 127.892 18.7526 128.19 19.1586C128.139 19.1532 128.084 19.1532 128.029 19.1532H128.008C127.923 19.1532 127.837 19.1586 127.756 19.1687C127.68 19.1733 127.605 19.1833 127.528 19.1933C127.181 19.238 126.822 19.332 126.509 19.4607C126.433 19.4853 126.358 19.52 126.287 19.5647C126.075 19.6743 125.898 19.7974 125.787 19.9362C125.782 19.9416 125.777 19.9462 125.772 19.9562C125.766 19.9617 125.762 19.9663 125.757 19.9763C125.746 19.99 125.74 20.0055 125.738 20.0238C125.738 20.032 125.737 20.0411 125.737 20.0502C125.737 20.0849 125.747 20.115 125.772 20.1397C125.782 20.1543 125.792 20.1643 125.807 20.1698C125.822 20.1789 125.843 20.1889 125.868 20.1944C125.872 20.199 125.883 20.199 125.893 20.199C125.898 20.1999 125.905 20.2017 125.91 20.2035H125.911C125.957 20.2127 126 20.2254 126.04 20.2391H126.044C126.837 20.4764 127.327 21.1453 127.382 21.8735C127.407 22.2304 127.327 22.6027 127.125 22.9394C127.095 22.9942 127.059 23.048 127.019 23.0982C126.564 23.7169 125.726 24.1084 124.837 24.2371C124.727 24.2526 124.611 24.2672 124.5 24.2718C123.904 24.3165 123.313 24.2325 122.823 24.0199C122.662 23.9506 122.51 23.8611 122.374 23.7617C122.52 23.7918 122.672 23.8018 122.834 23.8018C123.333 23.8064 123.858 23.6877 124.272 23.4842C124.378 23.435 124.474 23.3756 124.56 23.3163C124.731 23.2023 124.868 23.0681 124.954 22.9194C124.747 22.8993 124.58 22.8701 124.403 22.86H124.399C124.363 22.8555 124.323 22.85 124.282 22.85C124.262 22.85 124.237 22.85 124.216 22.8454C123.717 22.8454 123.258 22.7761 122.849 22.6374C121.895 22.3198 121.193 21.6308 120.779 20.5166C120.744 20.4372 120.677 20.3277 120.571 20.2638C120.455 20.1844 120.345 20.1789 120.253 20.1743H120.178C120.056 20.1743 119.94 20.1743 119.825 20.1789C119.491 20.1889 119.138 20.2236 118.774 20.2784C117.729 20.4417 116.634 20.7639 115.816 21.1161C115.543 21.2347 115.3 21.3534 115.099 21.4729C114.972 21.5468 114.822 21.6308 114.68 21.7157C113.297 20.3231 112.065 18.7918 110.994 17.1464C110.974 17.4093 110.964 17.6721 110.964 17.9349V17.9942C110.959 18.0088 110.959 18.0289 110.959 18.0435V18.2223C110.954 18.4204 110.954 18.623 110.959 18.8319C110.964 18.9451 110.969 19.0592 110.974 19.1787C110.979 19.1833 110.979 19.1879 110.974 19.1933C110.994 19.4315 111.014 19.6743 111.045 19.9216C111.049 19.9809 111.055 20.0402 111.07 20.0949C111.08 20.2337 111.1 20.3724 111.12 20.5065C111.146 20.6799 111.171 20.8533 111.201 21.0267C111.227 21.18 111.257 21.3342 111.287 21.4875C111.292 21.5268 111.302 21.5614 111.312 21.5961C111.342 21.7504 111.373 21.9037 111.413 22.0524C111.454 22.2258 111.494 22.3892 111.539 22.558C111.59 22.7414 111.645 22.9194 111.701 23.0982C111.847 23.5782 112.024 24.0546 112.216 24.5154C112.368 24.8768 112.534 25.2282 112.705 25.5758C112.711 25.585 112.716 25.595 112.721 25.6105C114.751 29.6432 118.4 32.7505 122.849 34.1084H129.892C130.176 34.1084 130.447 34.0518 130.694 33.9496C131.438 33.6412 131.962 32.9175 131.962 32.0761V2.03334C131.962 1.18921 131.438 0.467365 130.694 0.160741ZM122.888 28.988C122.857 28.977 122.827 28.9651 122.797 28.9533C122.254 28.7425 121.731 28.497 121.226 28.2223H121.224C119.962 27.5324 118.822 26.6536 117.843 25.6251C118.129 25.7638 118.421 25.8916 118.718 26.0075C120.134 26.5642 121.683 26.8708 123.302 26.8708C124.029 26.8708 124.74 26.8096 125.432 26.691C124.686 27.557 123.83 28.3291 122.888 28.988Z" fill="#DB1F26"/>
</svg>
