<svg width="398" height="32" viewBox="0 0 398 32" fill="none" xmlns="http://www.w3.org/2000/svg">
<path d="M13.408 23.192C12.6507 23.192 11.9467 23.0533 11.296 22.776C10.656 22.4987 10.1013 22.1147 9.632 21.624C9.17333 21.1227 8.83733 20.5413 8.624 19.88L10.432 19.096C10.72 19.7787 11.136 20.3173 11.68 20.712C12.224 21.096 12.8373 21.288 13.52 21.288C13.904 21.288 14.2347 21.2293 14.512 21.112C14.8 20.984 15.0187 20.8133 15.168 20.6C15.328 20.3867 15.408 20.1307 15.408 19.832C15.408 19.48 15.3013 19.192 15.088 18.968C14.8853 18.7333 14.576 18.552 14.16 18.424L11.872 17.688C10.944 17.4 10.2453 16.968 9.776 16.392C9.30667 15.816 9.072 15.1387 9.072 14.36C9.072 13.6773 9.23733 13.0747 9.568 12.552C9.90933 12.0293 10.3787 11.624 10.976 11.336C11.584 11.0373 12.2773 10.888 13.056 10.888C13.7707 10.888 14.4267 11.016 15.024 11.272C15.6213 11.5173 16.1333 11.864 16.56 12.312C16.9973 12.7493 17.3227 13.2667 17.536 13.864L15.744 14.664C15.5093 14.0667 15.1573 13.608 14.688 13.288C14.2187 12.9573 13.6747 12.792 13.056 12.792C12.6933 12.792 12.3733 12.856 12.096 12.984C11.8187 13.1013 11.6 13.272 11.44 13.496C11.2907 13.7093 11.216 13.9653 11.216 14.264C11.216 14.5947 11.3227 14.888 11.536 15.144C11.7493 15.3893 12.0747 15.5813 12.512 15.72L14.704 16.408C15.6533 16.7173 16.3627 17.144 16.832 17.688C17.312 18.232 17.552 18.904 17.552 19.704C17.552 20.3867 17.376 20.9893 17.024 21.512C16.672 22.0347 16.1867 22.4453 15.568 22.744C14.9493 23.0427 14.2293 23.192 13.408 23.192ZM23.6034 23.096C22.622 23.096 21.8594 22.8293 21.3154 22.296C20.782 21.752 20.5154 20.9893 20.5154 20.008V16.168H19.0114V14.296H19.1714C19.598 14.296 19.9287 14.184 20.1634 13.96C20.398 13.736 20.5154 13.4107 20.5154 12.984V12.312H22.6114V14.296H24.6114V16.168H22.6114V19.896C22.6114 20.184 22.6594 20.4293 22.7554 20.632C22.862 20.8347 23.022 20.9893 23.2354 21.096C23.4594 21.2027 23.742 21.256 24.0834 21.256C24.158 21.256 24.2434 21.2507 24.3394 21.24C24.446 21.2293 24.5474 21.2187 24.6434 21.208V23C24.494 23.0213 24.3234 23.0427 24.1314 23.064C23.9394 23.0853 23.7634 23.096 23.6034 23.096ZM26.5448 23V14.296H28.5128V16.232L28.3528 15.944C28.5554 15.2933 28.8701 14.84 29.2968 14.584C29.7341 14.328 30.2568 14.2 30.8648 14.2H31.3768V16.056H30.6248C30.0274 16.056 29.5474 16.2427 29.1848 16.616C28.8221 16.9787 28.6408 17.4907 28.6408 18.152V23H26.5448ZM37.0851 23.192C36.2318 23.192 35.4531 22.9947 34.7491 22.6C34.0558 22.2053 33.5011 21.6667 33.0851 20.984C32.6798 20.3013 32.4771 19.5227 32.4771 18.648C32.4771 17.7733 32.6798 16.9947 33.0851 16.312C33.5011 15.6293 34.0558 15.0907 34.7491 14.696C35.4425 14.3013 36.2211 14.104 37.0851 14.104C37.9385 14.104 38.7118 14.3013 39.4051 14.696C40.0985 15.0907 40.6478 15.6293 41.0531 16.312C41.4691 16.984 41.6771 17.7627 41.6771 18.648C41.6771 19.5227 41.4691 20.3013 41.0531 20.984C40.6371 21.6667 40.0825 22.2053 39.3891 22.6C38.6958 22.9947 37.9278 23.192 37.0851 23.192ZM37.0851 21.272C37.5545 21.272 37.9651 21.16 38.3171 20.936C38.6798 20.712 38.9625 20.4027 39.1651 20.008C39.3785 19.6027 39.4851 19.1493 39.4851 18.648C39.4851 18.136 39.3785 17.688 39.1651 17.304C38.9625 16.9093 38.6798 16.6 38.3171 16.376C37.9651 16.1413 37.5545 16.024 37.0851 16.024C36.6051 16.024 36.1838 16.1413 35.8211 16.376C35.4585 16.6 35.1705 16.9093 34.9571 17.304C34.7545 17.688 34.6531 18.136 34.6531 18.648C34.6531 19.1493 34.7545 19.6027 34.9571 20.008C35.1705 20.4027 35.4585 20.712 35.8211 20.936C36.1838 21.16 36.6051 21.272 37.0851 21.272ZM43.5666 23V14.296H45.5346V16.008L45.3746 15.704C45.5773 15.1813 45.908 14.7867 46.3666 14.52C46.836 14.2427 47.38 14.104 47.9986 14.104C48.6386 14.104 49.204 14.2427 49.6946 14.52C50.196 14.7973 50.5853 15.1867 50.8626 15.688C51.14 16.1787 51.2786 16.7493 51.2786 17.4V23H49.1826V17.896C49.1826 17.512 49.108 17.1813 48.9586 16.904C48.8093 16.6267 48.6013 16.4133 48.3346 16.264C48.0786 16.104 47.7746 16.024 47.4226 16.024C47.0813 16.024 46.7773 16.104 46.5106 16.264C46.244 16.4133 46.036 16.6267 45.8866 16.904C45.7373 17.1813 45.6626 17.512 45.6626 17.896V23H43.5666ZM57.575 26.52C56.9243 26.52 56.3217 26.4133 55.767 26.2C55.2123 25.9867 54.7323 25.688 54.327 25.304C53.9323 24.9307 53.6443 24.488 53.463 23.976L55.415 23.24C55.543 23.6453 55.7937 23.9707 56.167 24.216C56.551 24.472 57.0203 24.6 57.575 24.6C58.0017 24.6 58.375 24.52 58.695 24.36C59.0257 24.2 59.2817 23.9653 59.463 23.656C59.6443 23.3573 59.735 22.9947 59.735 22.568V20.584L60.135 21.064C59.8363 21.5867 59.4363 21.9813 58.935 22.248C58.4337 22.5147 57.863 22.648 57.223 22.648C56.4123 22.648 55.687 22.4613 55.047 22.088C54.407 21.7147 53.9057 21.2027 53.543 20.552C53.1803 19.9013 52.999 19.1707 52.999 18.36C52.999 17.5387 53.1803 16.808 53.543 16.168C53.9057 15.528 54.4017 15.0267 55.031 14.664C55.6603 14.2907 56.375 14.104 57.175 14.104C57.8257 14.104 58.3963 14.2427 58.887 14.52C59.3883 14.7867 59.8043 15.176 60.135 15.688L59.847 16.216V14.296H61.831V22.568C61.831 23.3253 61.6443 24.0027 61.271 24.6C60.9083 25.1973 60.407 25.6667 59.767 26.008C59.1377 26.3493 58.407 26.52 57.575 26.52ZM57.479 20.712C57.927 20.712 58.3163 20.616 58.647 20.424C58.9883 20.2213 59.255 19.944 59.447 19.592C59.639 19.24 59.735 18.8347 59.735 18.376C59.735 17.928 59.6337 17.528 59.431 17.176C59.239 16.8133 58.9723 16.5307 58.631 16.328C58.3003 16.1253 57.9163 16.024 57.479 16.024C57.0417 16.024 56.647 16.1253 56.295 16.328C55.943 16.5307 55.6657 16.8133 55.463 17.176C55.271 17.528 55.175 17.928 55.175 18.376C55.175 18.824 55.271 19.224 55.463 19.576C55.6657 19.928 55.9377 20.2053 56.279 20.408C56.631 20.6107 57.031 20.712 57.479 20.712ZM64.2645 23V11.08H69.2885C70.0778 11.08 70.7498 11.2187 71.3045 11.496C71.8698 11.7627 72.3018 12.1467 72.6005 12.648C72.9098 13.1387 73.0645 13.736 73.0645 14.44C73.0645 14.984 72.9152 15.496 72.6165 15.976C72.3285 16.4453 71.8645 16.8347 71.2245 17.144V16.136C71.8112 16.36 72.2752 16.6373 72.6165 16.968C72.9578 17.2987 73.1978 17.6667 73.3365 18.072C73.4752 18.4773 73.5445 18.904 73.5445 19.352C73.5445 20.4933 73.1658 21.3893 72.4085 22.04C71.6618 22.68 70.6218 23 69.2885 23H64.2645ZM66.4405 21.08H69.5125C70.0778 21.08 70.5258 20.9253 70.8565 20.616C71.1978 20.296 71.3685 19.8747 71.3685 19.352C71.3685 18.8293 71.1978 18.408 70.8565 18.088C70.5258 17.768 70.0778 17.608 69.5125 17.608H66.4405V21.08ZM66.4405 15.704H69.4005C69.8485 15.704 70.2058 15.576 70.4725 15.32C70.7392 15.0533 70.8725 14.712 70.8725 14.296C70.8725 13.88 70.7392 13.5493 70.4725 13.304C70.2058 13.0587 69.8485 12.936 69.4005 12.936H66.4405V15.704ZM79.707 23.192C78.8537 23.192 78.075 22.9947 77.371 22.6C76.6777 22.2053 76.123 21.6667 75.707 20.984C75.3017 20.3013 75.099 19.5227 75.099 18.648C75.099 17.7733 75.3017 16.9947 75.707 16.312C76.123 15.6293 76.6777 15.0907 77.371 14.696C78.0643 14.3013 78.843 14.104 79.707 14.104C80.5603 14.104 81.3337 14.3013 82.027 14.696C82.7203 15.0907 83.2697 15.6293 83.675 16.312C84.091 16.984 84.299 17.7627 84.299 18.648C84.299 19.5227 84.091 20.3013 83.675 20.984C83.259 21.6667 82.7043 22.2053 82.011 22.6C81.3177 22.9947 80.5497 23.192 79.707 23.192ZM79.707 21.272C80.1763 21.272 80.587 21.16 80.939 20.936C81.3017 20.712 81.5843 20.4027 81.787 20.008C82.0003 19.6027 82.107 19.1493 82.107 18.648C82.107 18.136 82.0003 17.688 81.787 17.304C81.5843 16.9093 81.3017 16.6 80.939 16.376C80.587 16.1413 80.1763 16.024 79.707 16.024C79.227 16.024 78.8057 16.1413 78.443 16.376C78.0803 16.6 77.7923 16.9093 77.579 17.304C77.3763 17.688 77.275 18.136 77.275 18.648C77.275 19.1493 77.3763 19.6027 77.579 20.008C77.7923 20.4027 78.0803 20.712 78.443 20.936C78.8057 21.16 79.227 21.272 79.707 21.272ZM90.2365 23.192C89.3938 23.192 88.6418 22.9947 87.9805 22.6C87.3192 22.1947 86.7965 21.6453 86.4125 20.952C86.0285 20.2587 85.8365 19.4907 85.8365 18.648C85.8365 17.7947 86.0285 17.0267 86.4125 16.344C86.7965 15.6613 87.3192 15.1173 87.9805 14.712C88.6525 14.3067 89.3992 14.104 90.2205 14.104C90.8818 14.104 91.4685 14.2373 91.9805 14.504C92.5032 14.76 92.9138 15.1227 93.2125 15.592L92.8925 16.024V10.888H94.9885V23H93.0045V21.32L93.2285 21.736C92.9298 22.2053 92.5138 22.568 91.9805 22.824C91.4472 23.0693 90.8658 23.192 90.2365 23.192ZM90.4605 21.272C90.9405 21.272 91.3618 21.16 91.7245 20.936C92.0872 20.712 92.3698 20.4027 92.5725 20.008C92.7858 19.6133 92.8925 19.16 92.8925 18.648C92.8925 18.1467 92.7858 17.6987 92.5725 17.304C92.3698 16.8987 92.0872 16.584 91.7245 16.36C91.3618 16.136 90.9405 16.024 90.4605 16.024C89.9912 16.024 89.5698 16.1413 89.1965 16.376C88.8232 16.6 88.5298 16.9093 88.3165 17.304C88.1138 17.688 88.0125 18.136 88.0125 18.648C88.0125 19.16 88.1138 19.6133 88.3165 20.008C88.5298 20.4027 88.8232 20.712 89.1965 20.936C89.5698 21.16 89.9912 21.272 90.4605 21.272ZM98.2945 26.52C98.0598 26.52 97.8305 26.4987 97.6065 26.456C97.3825 26.424 97.1798 26.36 96.9985 26.264V24.52C97.1372 24.552 97.3025 24.584 97.4945 24.616C97.6972 24.648 97.8838 24.664 98.0545 24.664C98.5345 24.664 98.8812 24.552 99.0945 24.328C99.3185 24.1147 99.5158 23.8267 99.6865 23.464L100.262 22.12L100.23 23.88L96.4385 14.296H98.6945L101.35 21.368H100.55L103.19 14.296H105.462L101.67 23.88C101.446 24.4347 101.174 24.9093 100.854 25.304C100.534 25.6987 100.161 25.9973 99.7345 26.2C99.3185 26.4133 98.8385 26.52 98.2945 26.52ZM107.265 23V20.76H109.377V23H107.265ZM115.26 23.192C114.652 23.192 114.124 23.0907 113.676 22.888C113.228 22.6853 112.881 22.3973 112.636 22.024C112.39 21.64 112.268 21.1973 112.268 20.696C112.268 20.216 112.374 19.7893 112.588 19.416C112.801 19.032 113.132 18.712 113.58 18.456C114.028 18.2 114.593 18.0187 115.276 17.912L118.124 17.448V19.048L115.676 19.464C115.26 19.5387 114.95 19.672 114.748 19.864C114.545 20.056 114.444 20.3067 114.444 20.616C114.444 20.9147 114.556 21.1547 114.78 21.336C115.014 21.5067 115.302 21.592 115.644 21.592C116.081 21.592 116.465 21.5013 116.796 21.32C117.137 21.128 117.398 20.8667 117.58 20.536C117.772 20.2053 117.868 19.8427 117.868 19.448V17.208C117.868 16.8347 117.718 16.5253 117.42 16.28C117.132 16.024 116.748 15.896 116.268 15.896C115.82 15.896 115.42 16.0187 115.068 16.264C114.726 16.4987 114.476 16.8133 114.316 17.208L112.604 16.376C112.774 15.9173 113.041 15.5227 113.404 15.192C113.777 14.8507 114.214 14.584 114.716 14.392C115.217 14.2 115.761 14.104 116.348 14.104C117.062 14.104 117.692 14.2373 118.236 14.504C118.78 14.76 119.201 15.1227 119.5 15.592C119.809 16.0507 119.964 16.5893 119.964 17.208V23H117.98V21.512L118.428 21.48C118.204 21.8533 117.937 22.168 117.628 22.424C117.318 22.6693 116.966 22.8613 116.572 23C116.177 23.128 115.74 23.192 115.26 23.192ZM122.201 23V14.296H124.297V23H122.201ZM122.201 13.32V11.08H124.297V13.32H122.201ZM129.676 23V14.296H131.644V16.312L131.42 15.976C131.58 15.3467 131.9 14.8773 132.38 14.568C132.86 14.2587 133.425 14.104 134.076 14.104C134.791 14.104 135.42 14.2907 135.964 14.664C136.508 15.0373 136.86 15.528 137.02 16.136L136.428 16.184C136.695 15.4907 137.095 14.9733 137.628 14.632C138.161 14.28 138.775 14.104 139.468 14.104C140.087 14.104 140.636 14.2427 141.116 14.52C141.607 14.7973 141.991 15.1867 142.268 15.688C142.545 16.1787 142.684 16.7493 142.684 17.4V23H140.588V17.896C140.588 17.512 140.519 17.1813 140.38 16.904C140.241 16.6267 140.049 16.4133 139.804 16.264C139.559 16.104 139.26 16.024 138.908 16.024C138.577 16.024 138.284 16.104 138.028 16.264C137.772 16.4133 137.575 16.6267 137.436 16.904C137.297 17.1813 137.228 17.512 137.228 17.896V23H135.132V17.896C135.132 17.512 135.063 17.1813 134.924 16.904C134.785 16.6267 134.588 16.4133 134.332 16.264C134.087 16.104 133.793 16.024 133.452 16.024C133.121 16.024 132.828 16.104 132.572 16.264C132.316 16.4133 132.119 16.6267 131.98 16.904C131.841 17.1813 131.772 17.512 131.772 17.896V23H129.676ZM147.397 23.192C146.789 23.192 146.261 23.0907 145.813 22.888C145.365 22.6853 145.019 22.3973 144.773 22.024C144.528 21.64 144.405 21.1973 144.405 20.696C144.405 20.216 144.512 19.7893 144.725 19.416C144.939 19.032 145.269 18.712 145.717 18.456C146.165 18.2 146.731 18.0187 147.413 17.912L150.261 17.448V19.048L147.813 19.464C147.397 19.5387 147.088 19.672 146.885 19.864C146.683 20.056 146.581 20.3067 146.581 20.616C146.581 20.9147 146.693 21.1547 146.917 21.336C147.152 21.5067 147.44 21.592 147.781 21.592C148.219 21.592 148.603 21.5013 148.933 21.32C149.275 21.128 149.536 20.8667 149.717 20.536C149.909 20.2053 150.005 19.8427 150.005 19.448V17.208C150.005 16.8347 149.856 16.5253 149.557 16.28C149.269 16.024 148.885 15.896 148.405 15.896C147.957 15.896 147.557 16.0187 147.205 16.264C146.864 16.4987 146.613 16.8133 146.453 17.208L144.741 16.376C144.912 15.9173 145.179 15.5227 145.541 15.192C145.915 14.8507 146.352 14.584 146.853 14.392C147.355 14.2 147.899 14.104 148.485 14.104C149.2 14.104 149.829 14.2373 150.373 14.504C150.917 14.76 151.339 15.1227 151.637 15.592C151.947 16.0507 152.101 16.5893 152.101 17.208V23H150.117V21.512L150.565 21.48C150.341 21.8533 150.075 22.168 149.765 22.424C149.456 22.6693 149.104 22.8613 148.709 23C148.315 23.128 147.877 23.192 147.397 23.192ZM154.339 23V14.296H156.307V16.232L156.147 15.944C156.349 15.2933 156.664 14.84 157.091 14.584C157.528 14.328 158.051 14.2 158.659 14.2H159.171V16.056H158.419C157.821 16.056 157.341 16.2427 156.979 16.616C156.616 16.9787 156.435 17.4907 156.435 18.152V23H154.339ZM160.623 23V10.888H162.719V18.824L161.919 18.584L166.015 14.296H168.623L165.407 17.8L168.687 23H166.287L163.439 18.488L164.687 18.232L162.063 21.048L162.719 19.768V23H160.623ZM174.129 23.192C173.233 23.192 172.449 22.9893 171.777 22.584C171.105 22.1787 170.582 21.6293 170.209 20.936C169.836 20.2427 169.649 19.4747 169.649 18.632C169.649 17.7573 169.836 16.984 170.209 16.312C170.593 15.6293 171.11 15.0907 171.761 14.696C172.422 14.3013 173.158 14.104 173.969 14.104C174.652 14.104 175.249 14.216 175.761 14.44C176.284 14.664 176.726 14.9733 177.089 15.368C177.452 15.7627 177.729 16.216 177.921 16.728C178.113 17.2293 178.209 17.7733 178.209 18.36C178.209 18.5093 178.198 18.664 178.177 18.824C178.166 18.984 178.14 19.1227 178.097 19.24H171.377V17.64H176.913L175.921 18.392C176.017 17.9013 175.99 17.464 175.841 17.08C175.702 16.696 175.468 16.392 175.137 16.168C174.817 15.944 174.428 15.832 173.969 15.832C173.532 15.832 173.142 15.944 172.801 16.168C172.46 16.3813 172.198 16.7013 172.017 17.128C171.846 17.544 171.782 18.0507 171.825 18.648C171.782 19.1813 171.852 19.656 172.033 20.072C172.225 20.4773 172.502 20.792 172.865 21.016C173.238 21.24 173.665 21.352 174.145 21.352C174.625 21.352 175.03 21.2507 175.361 21.048C175.702 20.8453 175.969 20.5733 176.161 20.232L177.857 21.064C177.686 21.48 177.42 21.848 177.057 22.168C176.694 22.488 176.262 22.7387 175.761 22.92C175.27 23.1013 174.726 23.192 174.129 23.192ZM184.066 23.096C183.085 23.096 182.322 22.8293 181.778 22.296C181.245 21.752 180.978 20.9893 180.978 20.008V16.168H179.474V14.296H179.634C180.061 14.296 180.391 14.184 180.626 13.96C180.861 13.736 180.978 13.4107 180.978 12.984V12.312H183.074V14.296H185.074V16.168H183.074V19.896C183.074 20.184 183.122 20.4293 183.218 20.632C183.325 20.8347 183.485 20.9893 183.698 21.096C183.922 21.2027 184.205 21.256 184.546 21.256C184.621 21.256 184.706 21.2507 184.802 21.24C184.909 21.2293 185.01 21.2187 185.106 21.208V23C184.957 23.0213 184.786 23.0427 184.594 23.064C184.402 23.0853 184.226 23.096 184.066 23.096ZM187.007 26.2V14.296H188.975V16.024L188.783 15.592C189.082 15.1227 189.487 14.76 189.999 14.504C190.511 14.2373 191.103 14.104 191.775 14.104C192.597 14.104 193.338 14.3067 193.999 14.712C194.661 15.1173 195.183 15.6613 195.567 16.344C195.962 17.0267 196.159 17.7947 196.159 18.648C196.159 19.4907 195.967 20.2587 195.583 20.952C195.199 21.6453 194.677 22.1947 194.015 22.6C193.354 22.9947 192.602 23.192 191.759 23.192C191.13 23.192 190.549 23.0693 190.015 22.824C189.493 22.568 189.077 22.2053 188.767 21.736L189.103 21.32V26.2H187.007ZM191.519 21.272C191.999 21.272 192.426 21.16 192.799 20.936C193.173 20.712 193.461 20.4027 193.663 20.008C193.877 19.6133 193.983 19.16 193.983 18.648C193.983 18.136 193.877 17.688 193.663 17.304C193.461 16.9093 193.173 16.6 192.799 16.376C192.426 16.1413 191.999 16.024 191.519 16.024C191.061 16.024 190.645 16.136 190.271 16.36C189.909 16.584 189.621 16.8987 189.407 17.304C189.205 17.6987 189.103 18.1467 189.103 18.648C189.103 19.16 189.205 19.6133 189.407 20.008C189.621 20.4027 189.909 20.712 190.271 20.936C190.645 21.16 191.061 21.272 191.519 21.272ZM198.057 23V10.888H200.153V23H198.057ZM205.029 23.192C204.421 23.192 203.893 23.0907 203.445 22.888C202.997 22.6853 202.65 22.3973 202.405 22.024C202.159 21.64 202.037 21.1973 202.037 20.696C202.037 20.216 202.143 19.7893 202.357 19.416C202.57 19.032 202.901 18.712 203.349 18.456C203.797 18.2 204.362 18.0187 205.045 17.912L207.893 17.448V19.048L205.445 19.464C205.029 19.5387 204.719 19.672 204.517 19.864C204.314 20.056 204.213 20.3067 204.213 20.616C204.213 20.9147 204.325 21.1547 204.549 21.336C204.783 21.5067 205.071 21.592 205.413 21.592C205.85 21.592 206.234 21.5013 206.565 21.32C206.906 21.128 207.167 20.8667 207.349 20.536C207.541 20.2053 207.637 19.8427 207.637 19.448V17.208C207.637 16.8347 207.487 16.5253 207.189 16.28C206.901 16.024 206.517 15.896 206.037 15.896C205.589 15.896 205.189 16.0187 204.837 16.264C204.495 16.4987 204.245 16.8133 204.085 17.208L202.373 16.376C202.543 15.9173 202.81 15.5227 203.173 15.192C203.546 14.8507 203.983 14.584 204.485 14.392C204.986 14.2 205.53 14.104 206.117 14.104C206.831 14.104 207.461 14.2373 208.005 14.504C208.549 14.76 208.97 15.1227 209.269 15.592C209.578 16.0507 209.733 16.5893 209.733 17.208V23H207.749V21.512L208.197 21.48C207.973 21.8533 207.706 22.168 207.397 22.424C207.087 22.6693 206.735 22.8613 206.341 23C205.946 23.128 205.509 23.192 205.029 23.192ZM216.162 23.192C215.298 23.192 214.519 22.9947 213.826 22.6C213.143 22.1947 212.604 21.6507 212.21 20.968C211.815 20.2747 211.618 19.496 211.618 18.632C211.618 17.768 211.815 16.9947 212.21 16.312C212.604 15.6293 213.143 15.0907 213.826 14.696C214.519 14.3013 215.298 14.104 216.162 14.104C216.78 14.104 217.356 14.216 217.89 14.44C218.423 14.6533 218.882 14.952 219.266 15.336C219.66 15.7093 219.943 16.1573 220.114 16.68L218.274 17.48C218.114 17.0427 217.842 16.6907 217.458 16.424C217.084 16.1573 216.652 16.024 216.162 16.024C215.703 16.024 215.292 16.136 214.93 16.36C214.578 16.584 214.3 16.8933 214.098 17.288C213.895 17.6827 213.794 18.136 213.794 18.648C213.794 19.16 213.895 19.6133 214.098 20.008C214.3 20.4027 214.578 20.712 214.93 20.936C215.292 21.16 215.703 21.272 216.162 21.272C216.663 21.272 217.1 21.1387 217.474 20.872C217.847 20.6053 218.114 20.248 218.274 19.8L220.114 20.632C219.943 21.1227 219.666 21.5653 219.282 21.96C218.898 22.344 218.439 22.648 217.906 22.872C217.372 23.0853 216.791 23.192 216.162 23.192ZM226.132 23.192C225.236 23.192 224.452 22.9893 223.78 22.584C223.108 22.1787 222.585 21.6293 222.212 20.936C221.839 20.2427 221.652 19.4747 221.652 18.632C221.652 17.7573 221.839 16.984 222.212 16.312C222.596 15.6293 223.113 15.0907 223.764 14.696C224.425 14.3013 225.161 14.104 225.972 14.104C226.655 14.104 227.252 14.216 227.764 14.44C228.287 14.664 228.729 14.9733 229.092 15.368C229.455 15.7627 229.732 16.216 229.924 16.728C230.116 17.2293 230.212 17.7733 230.212 18.36C230.212 18.5093 230.201 18.664 230.18 18.824C230.169 18.984 230.143 19.1227 230.1 19.24H223.38V17.64H228.916L227.924 18.392C228.02 17.9013 227.993 17.464 227.844 17.08C227.705 16.696 227.471 16.392 227.14 16.168C226.82 15.944 226.431 15.832 225.972 15.832C225.535 15.832 225.145 15.944 224.804 16.168C224.463 16.3813 224.201 16.7013 224.02 17.128C223.849 17.544 223.785 18.0507 223.828 18.648C223.785 19.1813 223.855 19.656 224.036 20.072C224.228 20.4773 224.505 20.792 224.868 21.016C225.241 21.24 225.668 21.352 226.148 21.352C226.628 21.352 227.033 21.2507 227.364 21.048C227.705 20.8453 227.972 20.5733 228.164 20.232L229.86 21.064C229.689 21.48 229.423 21.848 229.06 22.168C228.697 22.488 228.265 22.7387 227.764 22.92C227.273 23.1013 226.729 23.192 226.132 23.192Z" fill="#687588"/>
</svg>
