<svg width="29" height="28" viewBox="0 0 29 28" fill="none" xmlns="http://www.w3.org/2000/svg">
<g clip-path="url(#clip0_2004_37813)">
<path d="M21.9573 5.20229C21.3498 4.62383 20.4687 4.43571 19.6779 4.71556C19.4542 4.7903 19.2914 4.98418 19.2564 5.21734L19.0807 6.42419C18.8144 8.24701 17.2547 9.60076 15.4125 9.60811H12.9035C12.6156 9.60817 12.3648 9.80422 12.2951 10.0835L10.4133 17.6105C10.3295 17.9467 10.534 18.2871 10.8701 18.3709C10.9197 18.3833 10.9706 18.3896 11.0217 18.3896H14.158C14.4459 18.3895 14.6967 18.1935 14.7664 17.9141L15.9017 13.3716H18.348C20.2259 13.3778 21.8641 12.0979 22.3122 10.2742L22.7751 8.41884C23.101 7.27756 22.7886 6.04931 21.9573 5.20229Z" fill="#03A9F4"/>
<path d="M1.61147 25.9169C1.26505 25.9169 0.984257 25.636 0.984375 25.2895C0.984375 25.2384 0.990667 25.1875 1.00302 25.1379L1.63028 22.6415V22.6152L2.25755 20.12C2.32724 19.8406 2.5781 19.6446 2.866 19.6445H4.46173C5.3278 19.6444 6.02999 20.3462 6.03022 21.2123C6.03022 21.3406 6.01452 21.4684 5.98347 21.5928L5.82664 22.2201C5.65217 22.9184 5.02472 23.4082 4.30495 23.4081H2.72923L2.22115 25.4416C2.15135 25.7213 1.89979 25.9175 1.61147 25.9169ZM3.04283 22.1534H4.30484C4.44873 22.153 4.57387 22.0548 4.60844 21.9151L4.76528 21.2878C4.80826 21.1208 4.70759 20.9505 4.54052 20.9075C4.51477 20.9009 4.48831 20.8976 4.46167 20.8977H3.35644L3.04283 22.1534Z" fill="#283593"/>
<path d="M8.31983 25.9171H7.42665C6.46637 25.9174 5.68774 25.1391 5.6875 24.1788C5.68744 24.0366 5.70491 23.8949 5.73937 23.7569L5.82216 23.4232C6.00781 22.6742 6.68142 22.1494 7.45299 22.1524H8.34617C9.30645 22.154 10.0836 22.9338 10.0819 23.8941C10.0817 24.0356 10.0642 24.1766 10.0297 24.3138L9.94695 24.6476C9.76113 25.3947 9.08964 25.9186 8.31983 25.9171ZM6.95744 24.0617C6.89299 24.3213 7.05118 24.5839 7.31074 24.6484C7.34867 24.6578 7.38754 24.6625 7.42665 24.6627H8.31983C8.51324 24.6632 8.68201 24.5317 8.72882 24.344L8.81161 24.0103C8.87606 23.7507 8.71788 23.4881 8.45831 23.4237C8.42039 23.4142 8.38152 23.4095 8.34241 23.4094H7.44923C7.25582 23.4088 7.08705 23.5403 7.04024 23.728L6.95744 24.0617Z" fill="#283593"/>
<path d="M9.13881 25.9165C8.79239 25.9163 8.51166 25.6354 8.51172 25.289C8.51172 25.2379 8.51801 25.187 8.53036 25.1374L9.15763 22.6284C9.24148 22.292 9.58208 22.0873 9.9185 22.1711C10.2549 22.255 10.4596 22.5956 10.3758 22.932L9.7485 25.441C9.6787 25.7208 9.42713 25.917 9.13881 25.9165Z" fill="#283593"/>
<path d="M16.6662 25.917C16.3197 25.9169 16.039 25.636 16.0391 25.2895C16.0391 25.2384 16.0454 25.1875 16.0577 25.1379L16.685 22.6415V22.6152L17.3122 20.12C17.3819 19.8406 17.6328 19.6446 17.9207 19.6445H19.5164C20.3825 19.6444 21.0847 20.3462 21.0849 21.2123C21.0849 21.3406 21.0692 21.4684 21.0382 21.5928L20.8813 22.2201C20.7069 22.9184 20.0794 23.4082 19.3596 23.4081H17.784L17.2759 25.4416C17.206 25.7213 16.9545 25.9175 16.6662 25.917ZM18.0975 22.1535H19.3608C19.5047 22.1531 19.6298 22.0548 19.6644 21.9152L19.8213 21.2879C19.8642 21.1208 19.7636 20.9505 19.5965 20.9076C19.5707 20.901 19.5442 20.8977 19.5176 20.8978H18.4112L18.0975 22.1535Z" fill="#03A9F4"/>
<path d="M23.3745 25.9171H22.4813C21.5211 25.9174 20.7424 25.1391 20.7422 24.1788C20.7421 24.0366 20.7596 23.8949 20.7941 23.7569L20.8769 23.4232C21.0625 22.6742 21.7361 22.1494 22.5077 22.1524H23.4009C24.3611 22.1521 25.1398 22.9304 25.14 23.8907C25.1401 24.0329 25.1226 24.1746 25.0881 24.3126L25.0053 24.6463C24.8197 25.3953 24.1461 25.9201 23.3745 25.9171ZM22.0121 24.0617C21.9477 24.3213 22.1059 24.5839 22.3654 24.6484C22.4034 24.6578 22.4422 24.6625 22.4813 24.6627H23.3745C23.5679 24.6632 23.7367 24.5317 23.7835 24.344L23.8663 24.0103C23.9308 23.7507 23.7726 23.4881 23.513 23.4237C23.4751 23.4142 23.4362 23.4095 23.3971 23.4094H22.5039C22.3105 23.4088 22.1417 23.5403 22.0949 23.728L22.0121 24.0617Z" fill="#03A9F4"/>
<path d="M24.1935 25.9165C23.8471 25.9163 23.5663 25.6354 23.5664 25.289C23.5664 25.2379 23.5727 25.187 23.585 25.1374L24.2123 22.6284C24.2962 22.292 24.6368 22.0873 24.9732 22.1711C25.3096 22.255 25.5143 22.5956 25.4305 22.932L24.8032 25.441C24.7334 25.7208 24.4818 25.917 24.1935 25.9165Z" fill="#03A9F4"/>
<path d="M12.9014 25.2894C12.6916 25.2893 12.4958 25.1843 12.3795 25.0096L11.1251 23.1279C10.9328 22.8397 11.0106 22.4502 11.2988 22.2579C11.5871 22.0656 11.9766 22.1434 12.1689 22.4317L13.4233 24.3134C13.6159 24.6014 13.5386 24.9909 13.2507 25.1835C13.1474 25.2526 13.0258 25.2894 12.9014 25.2894Z" fill="#283593"/>
<path d="M11.6466 27.17C11.3001 27.1699 11.0194 26.8889 11.0195 26.5425C11.0196 26.3959 11.071 26.2539 11.1648 26.1413L14.3011 22.3778C14.5231 22.1117 14.9188 22.076 15.1848 22.2981C15.4509 22.5201 15.4866 22.9158 15.2645 23.1819L12.1283 26.9454C12.009 27.088 11.8325 27.1702 11.6466 27.17Z" fill="#283593"/>
<path d="M26.7013 25.9176C26.3549 25.9175 26.0742 25.6366 26.0742 25.2902C26.0742 25.2391 26.0805 25.1881 26.0929 25.1386L27.3473 20.1206C27.4312 19.7842 27.7718 19.5795 28.1082 19.6633C28.4446 19.7472 28.6493 20.0878 28.5655 20.4242L27.311 25.4422C27.2413 25.722 26.9897 25.9181 26.7013 25.9176Z" fill="#03A9F4"/>
<path d="M19.8818 1.9152C19.2791 1.22489 18.4072 0.829198 17.4907 0.83008H10.3903C10.0869 0.83008 9.82704 1.04719 9.77305 1.34568L7.26404 15.1451C7.20235 15.486 7.42875 15.8123 7.76964 15.874C7.80645 15.8806 7.84385 15.884 7.88125 15.884H11.6447C11.9327 15.8839 12.1835 15.6879 12.2532 15.4086L13.3898 10.866H15.4082C17.8756 10.8563 19.9643 9.04238 20.3196 6.60075L20.6332 4.45679C20.7625 3.5408 20.4884 2.61368 19.8818 1.9152Z" fill="#283593"/>
</g>
<defs>
<clipPath id="clip0_2004_37813">
<rect width="27.6" height="27.6" fill="white" transform="translate(0.984375 0.201172)"/>
</clipPath>
</defs>
</svg>
