<svg width="80" height="80" viewBox="0 0 80 80" fill="none" xmlns="http://www.w3.org/2000/svg">
<circle cx="40" cy="40" r="40" fill="#FFCD16"/>
<path d="M40.0008 57.9158C31.3341 57.9158 24.3008 50.8658 24.3008 42.2158C24.3008 39.0991 25.2174 36.0824 26.9508 33.4824C27.3341 32.9158 28.1174 32.7491 28.6841 33.1324C29.2508 33.5158 29.4174 34.2991 29.0341 34.8658C27.5841 37.0324 26.8174 39.5824 26.8174 42.1991C26.8174 49.4824 32.7341 55.3991 40.0174 55.3991C47.3008 55.3991 53.2174 49.4824 53.2174 42.1991C53.2174 34.9158 47.2841 28.9991 40.0008 28.9991C38.4674 28.9991 36.9674 29.2158 35.5508 29.6491C34.8841 29.8491 34.1841 29.4824 33.9841 28.8158C33.7841 28.1491 34.1508 27.4491 34.8174 27.2491C36.4841 26.7491 38.2174 26.4824 40.0008 26.4824C48.6674 26.4824 55.7008 33.5324 55.7008 42.1824C55.7008 50.8324 48.6674 57.9158 40.0008 57.9158Z" fill="white"/>
<path d="M33.1186 30.1162C32.8352 30.1162 32.5352 30.0162 32.3019 29.8162C31.7686 29.3495 31.7186 28.5662 32.1686 28.0495L36.9852 22.5162C37.4352 21.9996 38.2352 21.9329 38.7519 22.3996C39.2686 22.8496 39.3186 23.6496 38.8686 24.1662L34.0519 29.6829C33.8019 29.9662 33.4519 30.1162 33.1186 30.1162Z" fill="white"/>
<path d="M38.7339 34.2162C38.4839 34.2162 38.2173 34.1329 38.0006 33.9829L32.3673 29.8662C31.8173 29.4662 31.7006 28.6829 32.1006 28.1329C32.5006 27.5662 33.2839 27.4496 33.8506 27.8496L39.4673 31.9496C40.0173 32.3496 40.1506 33.1329 39.7339 33.6996C39.5006 34.0496 39.1173 34.2162 38.7339 34.2162Z" fill="white"/>
</svg>
