<svg width="36" height="11" viewBox="0 0 36 11" fill="none" xmlns="http://www.w3.org/2000/svg">
<path d="M23.5537 0C24.6837 5.14515e-05 25.5889 0.232339 26.166 0.448242L25.7705 2.75684L25.5088 2.63477C24.9712 2.41848 24.2812 2.21077 23.3271 2.22559C22.1866 2.22568 21.6592 2.7006 21.6592 3.14258C21.6524 3.64146 22.2764 3.97148 23.2959 4.46484C24.9765 5.22457 25.7528 6.1471 25.7422 7.35938C25.72 9.57108 23.7307 10.9998 20.667 11C19.3599 10.9869 18.1015 10.7285 17.4199 10.4316L17.8291 8.0459L18.2051 8.21582C19.1621 8.61356 19.7817 8.7744 20.9482 8.77441C21.7859 8.77436 22.6842 8.44773 22.6914 7.7334C22.6973 7.26727 22.3154 6.93339 21.1816 6.41211C20.0758 5.90137 18.6123 5.04866 18.6279 3.5166C18.645 1.44599 20.674 0 23.5537 0ZM35.999 10.8447H33.2939C33.2939 10.8447 33.0277 9.62099 32.9404 9.24805C32.5153 9.24805 29.5422 9.24414 29.207 9.24414C29.0941 9.53137 28.5979 10.8339 28.5938 10.8447H25.5332L29.8613 1.08008C30.1686 0.385798 30.6898 0.196346 31.3877 0.196289H33.6406L35.999 10.8447ZM15.5947 10.8418H12.6816L14.5039 0.185547H17.418L15.5947 10.8418ZM13.3232 0.193359L8.73535 10.8291L5.65137 10.833L3.04297 1.5127C4.893 2.4358 6.54827 4.28058 7.0791 5.9834L7.38379 7.45996L10.2363 0.193359H13.3232ZM31.5928 3.06836C31.4455 3.46799 31.1896 4.11338 31.207 4.08496C31.207 4.08496 30.2874 6.45032 30.0459 7.06445H32.4658C32.3495 6.53353 31.7966 4.01711 31.79 3.9873L31.5928 3.06836Z" fill="#1A1F71"/>
<path fill-rule="evenodd" clip-rule="evenodd" d="M4.73745 0.1875H0.0370346L0 0.408942C3.65663 1.29174 6.07623 3.42302 7.08042 5.98445L6.05835 1.08684C5.88211 0.411912 5.37002 0.210832 4.73745 0.1875Z" fill="#F9A51A"/>
</svg>
