<svg width="40" height="40" viewBox="0 0 40 40" fill="none" xmlns="http://www.w3.org/2000/svg">
<path d="M8.48259 15.8926C8.34676 15.9097 8.20987 15.9279 8.07404 15.945C7.99463 15.9503 7.91523 15.9621 7.83582 15.9803C7.6655 16.0092 7.48996 16.0381 7.31338 16.067C7.12007 16.1077 6.93303 16.143 6.74077 16.189C6.54747 16.2297 6.36044 16.2757 6.17341 16.3228C6.15669 16.3281 6.13893 16.3345 6.12221 16.3345C5.9519 16.3806 5.78158 16.4277 5.61126 16.4801C5.42945 16.5379 5.24242 16.5903 5.06061 16.6545C4.91328 16.7006 4.76596 16.753 4.62386 16.8054C3.68242 17.1479 2.77963 17.5728 1.92283 18.0661C1.75879 18.1592 1.5937 18.2577 1.43488 18.3562C1.27084 18.4546 1.11202 18.5595 0.952148 18.6644V22.18C1.45683 21.4887 2.01269 20.838 2.61454 20.2333C2.80785 20.0353 3.00011 19.8384 3.2049 19.6575C5.10031 17.897 7.36979 16.5604 9.87646 15.7812C9.80854 15.7812 9.74063 15.7866 9.67271 15.793C9.27043 15.8101 8.87233 15.8455 8.48155 15.8915L8.48259 15.8926Z" fill="#DA1F27"/>
<path d="M26.6567 16.6855L26.7988 16.4008C26.7194 16.3955 26.6003 16.4008 26.453 16.4008C26.1071 16.4126 25.5962 16.4415 25.0403 16.465C24.0874 16.511 23.0091 16.5817 22.3968 16.5988C22.3226 16.5988 22.2609 16.6042 22.1982 16.6042C22.3226 16.6619 22.4417 16.7208 22.5619 16.7786C24.2692 17.6208 25.824 18.7371 27.1687 20.0791C27.2252 20.1316 27.2764 20.1893 27.3328 20.2418C27.3276 20.1958 27.3213 20.1487 27.3098 20.1027C27.2816 19.8469 27.2189 19.6082 27.1457 19.3824C26.9869 18.9233 26.7487 18.4995 26.4875 18.0628C26.3736 17.9055 26.2607 17.7664 26.1698 17.639L26.1813 17.6037L26.6578 16.6855H26.6567Z" fill="#DA1F27"/>
<path d="M13.0742 30.922C13.0742 34.1069 13.6134 37.157 14.606 39.9984H18.3561C15.514 35.8492 13.7889 30.846 13.6186 25.4297C13.2612 27.2019 13.0742 29.0384 13.0742 30.9209V30.922Z" fill="#DA1F27"/>
<path d="M2.93847 35.2672C2.93324 35.4995 2.92696 35.7381 2.92696 35.9757C2.92696 36.4059 2.94368 36.8297 2.97816 37.2546C2.47348 36.8768 2.03046 36.423 1.66161 35.9126C1.37845 35.5294 1.13918 35.1163 0.952148 34.669V37.4644C0.952148 37.4879 0.952141 37.5168 0.957365 37.5403C0.952141 37.5692 0.952148 37.5928 0.952148 37.6217C0.952148 38.7604 1.74102 39.7193 2.78486 39.9515C2.79635 39.9569 2.80158 39.9569 2.81307 39.9569C2.87577 39.974 2.93742 39.9922 3.00011 40.0029H7.78253C7.27158 37.9288 6.99991 35.7488 6.99991 33.5121C6.99991 31.4552 7.22665 29.4507 7.66341 27.5264C7.75954 27.0962 7.86716 26.666 7.98732 26.2422C8.03852 26.056 8.08972 25.8698 8.14614 25.6846C8.17435 25.5797 8.20883 25.4813 8.24226 25.3828C8.27048 25.2726 8.31018 25.1559 8.34989 25.0457C8.41781 24.8306 8.49199 24.6155 8.5714 24.4004C8.6226 24.2495 8.67381 24.1039 8.73546 23.9584C8.83785 23.6737 8.94547 23.3944 9.06458 23.1161C9.20042 22.7844 9.34775 22.4537 9.50135 22.1283C9.53583 22.0416 9.58076 21.9539 9.62047 21.8672C5.71157 25.0168 3.14744 29.8338 2.93742 35.2672H2.93847Z" fill="#DA1F27"/>
<path d="M38.5793 0.190122C38.3014 0.0702592 37.9973 0.00390625 37.6776 0.00390625H3.32402C3.24461 0.00390625 3.15893 0.0103275 3.07952 0.0156786C1.95628 0.108786 1.05455 1.03237 0.963641 2.18284C0.958416 2.26418 0.952148 2.35194 0.952148 2.43327V13.3055C3.93632 10.7199 7.78357 9.14453 11.9756 9.08674C12.0665 9.08139 12.1522 9.08139 12.2431 9.08139C12.799 9.08139 13.3486 9.11028 13.894 9.16273C13.7519 9.04607 13.6098 8.93584 13.4688 8.83096H13.4855C13.3883 8.7614 13.2922 8.69183 13.1898 8.62227C13.0769 8.54094 12.963 8.4596 12.8439 8.37826C12.7311 8.29693 12.612 8.21452 12.4928 8.13961C12.3225 8.02296 12.1459 7.91272 11.9756 7.80784C11.8858 7.7447 11.7886 7.68584 11.6925 7.63447C11.613 7.58738 11.5336 7.54136 11.4595 7.49427C11.3006 7.39582 11.1366 7.30271 10.9663 7.2096C10.5065 6.95382 10.0928 6.73871 9.78033 6.61135C9.76884 6.60493 9.76361 6.59958 9.75212 6.59958C9.81481 6.57604 9.88273 6.55356 9.95065 6.53002C10.0071 6.5129 10.0698 6.48935 10.1325 6.47223C10.1889 6.45403 10.2453 6.43156 10.308 6.41979C10.5232 6.35558 10.7113 6.29778 10.8869 6.24534C10.983 6.21645 11.0739 6.18648 11.17 6.16936C11.2609 6.14582 11.3633 6.12334 11.4657 6.09445C11.5284 6.07625 11.5901 6.06448 11.658 6.04736C11.7437 6.02381 11.8231 6.00669 11.9077 5.98957C11.9359 5.98314 11.9589 5.97779 11.9871 5.97244C12.1177 5.93713 12.2546 5.90823 12.3842 5.88469C12.5033 5.86114 12.6224 5.83225 12.7478 5.80977C13.0821 5.74556 13.428 5.69312 13.7686 5.6471C14.6317 5.5358 15.5105 5.47801 16.4017 5.47801C17.922 5.47801 19.4026 5.6471 20.8268 5.96602C21.576 6.12869 22.3074 6.33845 23.0221 6.58781C23.5445 6.76761 24.0555 6.97201 24.5602 7.19248C24.8099 7.32625 24.9457 7.48892 24.9624 7.80784C24.9739 7.97694 24.9802 8.14496 24.9917 8.3194L24.9969 8.41893C25.0533 9.34252 25.1328 10.2725 25.2581 11.1908C25.3031 11.4861 25.5528 11.8126 25.791 12.0041C27.0052 12.9448 28.2757 13.8106 29.4617 14.7931C29.8817 15.1355 30.0803 15.3282 30.1262 15.5486V15.554C30.1712 15.7873 30.052 16.0538 29.8305 16.5718C29.8138 16.6178 29.7741 16.6938 29.7459 16.7869C30.7949 17.4429 31.7876 18.1867 32.7019 19.0182C32.8262 19.1285 32.9453 19.2441 33.0707 19.3607C33.2744 19.5469 33.473 19.7438 33.6715 19.9472C33.893 20.1805 34.1145 20.4127 34.3298 20.6503C34.4541 20.7959 34.5847 20.9414 34.7101 21.0923C35.079 21.5343 35.43 21.9934 35.7654 22.4697C35.708 22.4632 35.6463 22.4632 35.5836 22.4632H35.5606C35.4645 22.4632 35.3684 22.4697 35.2775 22.4814C35.1918 22.4868 35.1072 22.4986 35.0215 22.5103C34.6307 22.5628 34.2274 22.673 33.8763 22.8239C33.7906 22.8528 33.706 22.8935 33.6266 22.9459C33.3883 23.0743 33.1898 23.2188 33.0644 23.3815C33.0592 23.3879 33.0529 23.3932 33.0477 23.405C33.0414 23.4114 33.0362 23.4168 33.031 23.4286C33.0185 23.4446 33.0122 23.4628 33.0101 23.4842C33.009 23.4938 33.008 23.5045 33.008 23.5152C33.008 23.5559 33.0195 23.5912 33.0477 23.6201C33.0592 23.6373 33.0707 23.649 33.0874 23.6554C33.1041 23.6662 33.1271 23.6779 33.1553 23.6843C33.1606 23.6897 33.1721 23.6897 33.1835 23.6897C33.1898 23.6908 33.1971 23.6929 33.2034 23.695H33.2044C33.2556 23.7057 33.3037 23.7207 33.3486 23.7368H33.3539C34.2451 24.015 34.7948 24.7995 34.8574 25.6535C34.8857 26.072 34.7948 26.5086 34.568 26.9035C34.5346 26.9677 34.4938 27.0309 34.4489 27.0897C33.9379 27.8153 32.9965 28.2745 31.9976 28.4254C31.8733 28.4435 31.7427 28.4607 31.6183 28.466C30.9485 28.5185 30.285 28.42 29.7344 28.1706C29.5526 28.0893 29.3823 27.9844 29.2297 27.8678C29.3938 27.9031 29.5641 27.9149 29.7459 27.9149C30.307 27.9202 30.8973 27.7811 31.3623 27.5424C31.4814 27.4846 31.5891 27.4151 31.6862 27.3455C31.8785 27.2117 32.0321 27.0544 32.1282 26.88C31.8963 26.8564 31.7082 26.8222 31.5096 26.8104H31.5044C31.4647 26.8051 31.4198 26.7986 31.3738 26.7986C31.3508 26.7986 31.3226 26.7986 31.2996 26.7933C30.7385 26.7933 30.2224 26.712 29.7626 26.5493C28.6906 26.1769 27.9017 25.3688 27.4367 24.0621C27.397 23.969 27.3228 23.8406 27.2037 23.7657C27.0731 23.6726 26.9487 23.6661 26.8463 23.6608H26.7617C26.6248 23.6608 26.4942 23.6608 26.3647 23.6661C25.9895 23.6779 25.5925 23.7186 25.1839 23.7828C24.0095 23.9744 22.7786 24.3522 21.8591 24.7653C21.553 24.9044 21.2803 25.0435 21.0535 25.1837C20.9114 25.2704 20.7422 25.3688 20.5833 25.4684C19.0286 23.8352 17.6441 22.0394 16.4414 20.1099C16.4185 20.4181 16.407 20.7263 16.407 21.0345V21.1041C16.4017 21.1212 16.4017 21.1447 16.4017 21.1619V21.3716C16.3955 21.6039 16.3955 21.8414 16.4017 22.0865C16.407 22.2192 16.4132 22.353 16.4184 22.4932C16.4237 22.4986 16.4237 22.5039 16.4184 22.5103C16.4414 22.7897 16.4634 23.0743 16.4979 23.3644C16.5031 23.4339 16.5094 23.5035 16.5261 23.5677C16.5376 23.7304 16.5606 23.893 16.5825 24.0504C16.6118 24.2537 16.64 24.457 16.6734 24.6604C16.7027 24.8402 16.7361 25.021 16.7706 25.2008C16.7758 25.2468 16.7873 25.2875 16.7988 25.3282C16.8322 25.509 16.8667 25.6888 16.9116 25.8633C16.9576 26.0666 17.0025 26.2582 17.0537 26.4562C17.1102 26.6713 17.1729 26.88 17.2355 27.0897C17.3996 27.6527 17.5981 28.2113 17.8144 28.7518C17.9847 29.1756 18.1718 29.5876 18.364 29.9953C18.3703 30.006 18.3755 30.0178 18.3818 30.036C20.6628 34.7653 24.7639 38.4093 29.7626 40.0018H37.6776C37.9973 40.0018 38.3014 39.9354 38.5793 39.8156C39.4152 39.4538 40.0035 38.6051 40.0035 37.6184V2.38618C40.0035 1.39624 39.4152 0.549711 38.5793 0.190122ZM29.8065 33.9968C29.772 33.984 29.7386 33.9701 29.7041 33.9562C29.0949 33.709 28.5067 33.4211 27.9393 33.0989H27.9372C26.5183 32.2899 25.2372 31.2593 24.138 30.0531C24.4588 30.2158 24.7869 30.3656 25.1213 30.5015C26.7126 31.1544 28.4523 31.514 30.2725 31.514C31.0886 31.514 31.8879 31.4423 32.6653 31.3031C31.8273 32.3188 30.866 33.2242 29.8065 33.9968Z" fill="#DA1F27"/>
</svg>
