<svg width="54" height="54" viewBox="0 0 54 54" fill="none" xmlns="http://www.w3.org/2000/svg">
<rect width="54" height="54" rx="27" fill="#F1F2F4"/>
<path d="M31.5031 36.6752H22.5031C19.4071 36.6752 17.3281 34.5962 17.3281 31.5002V27.0002C17.3281 24.2282 19.0381 22.2212 21.6931 21.8882C21.9451 21.8522 22.2241 21.8252 22.5031 21.8252H31.5031C31.7191 21.8252 31.9981 21.8342 32.2861 21.8792C34.9411 22.1852 36.6781 24.2012 36.6781 27.0002V31.5002C36.6781 34.5962 34.5991 36.6752 31.5031 36.6752ZM22.5031 23.1752C22.2871 23.1752 22.0801 23.1932 21.8731 23.2202C19.8931 23.4722 18.6781 24.9122 18.6781 27.0002V31.5002C18.6781 33.8222 20.1811 35.3252 22.5031 35.3252H31.5031C33.8251 35.3252 35.3281 33.8222 35.3281 31.5002V27.0002C35.3281 24.8942 34.0951 23.4452 32.0971 23.2112C31.8811 23.1752 31.6921 23.1752 31.5031 23.1752H22.5031Z" fill="#DA1F27"/>
<path d="M21.7728 23.2289C21.5568 23.2289 21.3588 23.1299 21.2238 22.9499C21.0708 22.7429 21.0528 22.4729 21.1698 22.2479C21.3228 21.9419 21.5388 21.6449 21.8178 21.3749L24.7428 18.4409C26.2368 16.9559 28.6668 16.9559 30.1608 18.4409L31.7358 20.0339C32.4018 20.6909 32.8068 21.5729 32.8518 22.5089C32.8608 22.7159 32.7798 22.9139 32.6268 23.0489C32.4738 23.1839 32.2668 23.2469 32.0688 23.2109C31.8888 23.1839 31.6998 23.1749 31.5018 23.1749H22.5018C22.2858 23.1749 22.0788 23.1929 21.8718 23.2199C21.8448 23.2289 21.8088 23.2289 21.7728 23.2289ZM23.2758 21.8249H31.3398C31.2228 21.5189 31.0338 21.2399 30.7818 20.9879L29.1978 19.3859C28.2348 18.4319 26.6598 18.4319 25.6878 19.3859L23.2758 21.8249Z" fill="#DA1F27"/>
<path d="M36.0031 31.7254H33.3031C31.9351 31.7254 30.8281 30.6184 30.8281 29.2504C30.8281 27.8824 31.9351 26.7754 33.3031 26.7754H36.0031C36.3721 26.7754 36.6781 27.0814 36.6781 27.4504C36.6781 27.8194 36.3721 28.1254 36.0031 28.1254H33.3031C32.6821 28.1254 32.1781 28.6294 32.1781 29.2504C32.1781 29.8714 32.6821 30.3754 33.3031 30.3754H36.0031C36.3721 30.3754 36.6781 30.6814 36.6781 31.0504C36.6781 31.4194 36.3721 31.7254 36.0031 31.7254Z" fill="#DA1F27"/>
</svg>
