<svg width="25" height="24" viewBox="0 0 25 24" fill="none" xmlns="http://www.w3.org/2000/svg">
<rect x="0.5" width="24" height="24" rx="4" fill="#DA1F27"/>
<path d="M18.5024 8.48633C18.4891 8.48633 18.4691 8.48633 18.4491 8.48633C14.9224 8.13299 11.4024 7.99966 7.91572 8.35299L6.55572 8.48633C6.27572 8.51299 6.02905 8.31299 6.00239 8.03299C5.97572 7.75299 6.17572 7.51299 6.44905 7.48633L7.80905 7.35299C11.3557 6.99299 14.9491 7.13299 18.5491 7.48633C18.8224 7.51299 19.0224 7.75966 18.9957 8.03299C18.9757 8.29299 18.7557 8.48633 18.5024 8.48633Z" fill="white"/>
<path d="M10.1646 7.81301C10.1379 7.81301 10.1112 7.81301 10.0779 7.80634C9.81122 7.75967 9.62456 7.49967 9.67122 7.23301L9.81789 6.35967C9.92456 5.71967 10.0712 4.83301 11.6246 4.83301H13.3712C14.9312 4.83301 15.0779 5.75301 15.1779 6.36634L15.3246 7.23301C15.3712 7.50634 15.1846 7.76634 14.9179 7.80634C14.6446 7.85301 14.3846 7.66634 14.3446 7.39967L14.1979 6.53301C14.1046 5.95301 14.0846 5.83967 13.3779 5.83967H11.6312C10.9246 5.83967 10.9112 5.93301 10.8112 6.52634L10.6579 7.39301C10.6179 7.63967 10.4046 7.81301 10.1646 7.81301Z" fill="white"/>
<path d="M14.6377 19.1667H10.3577C8.03099 19.1667 7.93765 17.8801 7.86432 16.8401L7.43099 10.1267C7.41099 9.85338 7.62432 9.61338 7.89765 9.59338C8.17765 9.58005 8.41099 9.78672 8.43099 10.0601L8.86432 16.7734C8.93765 17.7867 8.96432 18.1667 10.3577 18.1667H14.6377C16.0377 18.1667 16.0643 17.7867 16.131 16.7734L16.5643 10.0601C16.5843 9.78672 16.8243 9.58005 17.0977 9.59338C17.371 9.61338 17.5843 9.84672 17.5643 10.1267L17.131 16.8401C17.0577 17.8801 16.9643 19.1667 14.6377 19.1667Z" fill="white"/>
<path d="M13.6028 15.5H11.3828C11.1095 15.5 10.8828 15.2733 10.8828 15C10.8828 14.7267 11.1095 14.5 11.3828 14.5H13.6028C13.8761 14.5 14.1028 14.7267 14.1028 15C14.1028 15.2733 13.8761 15.5 13.6028 15.5Z" fill="white"/>
<path d="M14.1693 12.833H10.8359C10.5626 12.833 10.3359 12.6063 10.3359 12.333C10.3359 12.0597 10.5626 11.833 10.8359 11.833H14.1693C14.4426 11.833 14.6693 12.0597 14.6693 12.333C14.6693 12.6063 14.4426 12.833 14.1693 12.833Z" fill="white"/>
</svg>
