<svg width="56" height="56" viewBox="0 0 56 56" fill="none" xmlns="http://www.w3.org/2000/svg">
<rect width="56" height="56" rx="28" fill="#E8E8E8"/>
<path d="M24.9975 33.7505C24.5875 33.7505 24.2475 33.4105 24.2475 33.0005V28.8105L23.5275 29.5305C23.2375 29.8205 22.7575 29.8205 22.4675 29.5305C22.1775 29.2405 22.1775 28.7605 22.4675 28.4705L24.4675 26.4705C24.6775 26.2605 25.0075 26.1905 25.2875 26.3105C25.5675 26.4205 25.7475 26.7005 25.7475 27.0005V33.0005C25.7475 33.4105 25.4075 33.7505 24.9975 33.7505Z" fill="#1F2C43"/>
<path d="M26.9975 29.7504C26.8075 29.7504 26.6175 29.6804 26.4675 29.5304L24.4675 27.5304C24.1775 27.2404 24.1775 26.7604 24.4675 26.4704C24.7575 26.1804 25.2375 26.1804 25.5275 26.4704L27.5275 28.4704C27.8175 28.7604 27.8175 29.2404 27.5275 29.5304C27.3775 29.6804 27.1875 29.7504 26.9975 29.7504Z" fill="#1F2C43"/>
<path d="M31 38.75H25C19.57 38.75 17.25 36.43 17.25 31V25C17.25 19.57 19.57 17.25 25 17.25H30C30.41 17.25 30.75 17.59 30.75 18C30.75 18.41 30.41 18.75 30 18.75H25C20.39 18.75 18.75 20.39 18.75 25V31C18.75 35.61 20.39 37.25 25 37.25H31C35.61 37.25 37.25 35.61 37.25 31V26C37.25 25.59 37.59 25.25 38 25.25C38.41 25.25 38.75 25.59 38.75 26V31C38.75 36.43 36.43 38.75 31 38.75Z" fill="#1F2C43"/>
<path d="M38 26.7505H34C30.58 26.7505 29.25 25.4205 29.25 22.0005V18.0005C29.25 17.7005 29.43 17.4205 29.71 17.3105C29.99 17.1905 30.31 17.2605 30.53 17.4705L38.53 25.4705C38.74 25.6805 38.81 26.0105 38.69 26.2905C38.57 26.5705 38.3 26.7505 38 26.7505ZM30.75 19.8105V22.0005C30.75 24.5805 31.42 25.2505 34 25.2505H36.19L30.75 19.8105Z" fill="#1F2C43"/>
</svg>
