<svg width="25" height="24" viewBox="0 0 25 24" fill="none" xmlns="http://www.w3.org/2000/svg">
<rect x="0.5" width="24" height="24" rx="4" fill="#2F78EE"/>
<path d="M8.19723 18.0625C7.79056 18.0625 7.41056 17.9225 7.13723 17.6625C6.79056 17.3359 6.6239 16.8425 6.6839 16.3092L6.93056 14.1492C6.97723 13.7425 7.2239 13.2025 7.51056 12.9092L12.9839 7.11585C14.3506 5.66919 15.7772 5.62919 17.2239 6.99585C18.6706 8.36252 18.7106 9.78919 17.3439 11.2359L11.8706 17.0292C11.5906 17.3292 11.0706 17.6092 10.6639 17.6759L8.51723 18.0425C8.4039 18.0492 8.3039 18.0625 8.19723 18.0625ZM15.1239 6.98919C14.6106 6.98919 14.1639 7.30919 13.7106 7.78919L8.23723 13.5892C8.1039 13.7292 7.95056 14.0625 7.9239 14.2559L7.67723 16.4159C7.65056 16.6359 7.7039 16.8159 7.8239 16.9292C7.9439 17.0425 8.1239 17.0825 8.3439 17.0492L10.4906 16.6825C10.6839 16.6492 11.0039 16.4759 11.1372 16.3359L16.6106 10.5425C17.4372 9.66252 17.7372 8.84919 16.5306 7.71585C15.9972 7.20252 15.5372 6.98919 15.1239 6.98919Z" fill="white"/>
<path d="M16.0629 12.3491C16.0496 12.3491 16.0296 12.3491 16.0162 12.3491C13.9362 12.1424 12.2629 10.5624 11.9429 8.49572C11.9029 8.22239 12.0896 7.96905 12.3629 7.92239C12.6362 7.88239 12.8896 8.06905 12.9362 8.34239C13.1896 9.95572 14.4962 11.1957 16.1229 11.3557C16.3962 11.3824 16.5962 11.6291 16.5696 11.9024C16.5362 12.1557 16.3162 12.3491 16.0629 12.3491Z" fill="white"/>
</svg>
