<svg width="25" height="24" viewBox="0 0 25 24" fill="none" xmlns="http://www.w3.org/2000/svg">
<path d="M17.7004 12.4C15.0504 12.4 12.9004 14.55 12.9004 17.2C12.9004 18.1 13.1504 18.95 13.6004 19.67C14.4304 21.06 15.9504 22 17.7004 22C19.4504 22 20.9804 21.06 21.8004 19.67C22.2404 18.95 22.5004 18.1 22.5004 17.2C22.5004 14.55 20.3504 12.4 17.7004 12.4ZM20.0804 16.57L17.5204 18.93C17.3804 19.06 17.1904 19.13 17.0104 19.13C16.8204 19.13 16.6304 19.06 16.4804 18.91L15.3004 17.73C15.0104 17.44 15.0104 16.96 15.3004 16.67C15.5904 16.38 16.0704 16.38 16.3604 16.67L17.0304 17.34L19.0604 15.46C19.3604 15.18 19.8404 15.2 20.1204 15.5C20.4004 15.81 20.3804 16.29 20.0804 16.57Z" fill="#0CAF60"/>
<path opacity="0.4" d="M22.5 8.68997C22.5 9.87997 22.31 10.98 21.98 12C21.77 12.67 21.5 13.31 21.18 13.9C20.3 12.97 19.07 12.4 17.7 12.4C15.05 12.4 12.9 14.55 12.9 17.2C12.9 18.43 13.37 19.55 14.13 20.4C13.76 20.57 13.42 20.71 13.12 20.81C12.78 20.93 12.22 20.93 11.88 20.81C9.47 19.99 4.6 17 3.02 12C2.69 10.98 2.5 9.87997 2.5 8.68997C2.5 5.59997 4.99 3.09998 8.06 3.09998C9.87 3.09998 11.49 3.97996 12.5 5.32996C13.51 3.97996 15.13 3.09998 16.94 3.09998C20.01 3.09998 22.5 5.59997 22.5 8.68997Z" fill="#0CAF60"/>
</svg>
