<svg width="54" height="54" viewBox="0 0 54 54" fill="none" xmlns="http://www.w3.org/2000/svg">
<rect width="54" height="54" rx="27" fill="#F1F2F4"/>
<path d="M24.4478 26.6582C24.4208 26.6582 24.4028 26.6582 24.3758 26.6582C24.3308 26.6492 24.2678 26.6492 24.2138 26.6582C21.6038 26.5772 19.6328 24.5252 19.6328 21.9962C19.6328 19.4222 21.7298 17.3252 24.3038 17.3252C26.8778 17.3252 28.9748 19.4222 28.9748 21.9962C28.9658 24.5252 26.9858 26.5772 24.4748 26.6582C24.4658 26.6582 24.4568 26.6582 24.4478 26.6582ZM24.3038 18.6752C22.4768 18.6752 20.9828 20.1692 20.9828 21.9962C20.9828 23.7962 22.3868 25.2452 24.1778 25.3082C24.2318 25.2992 24.3488 25.2992 24.4658 25.3082C26.2298 25.2272 27.6158 23.7782 27.6248 21.9962C27.6248 20.1692 26.1308 18.6752 24.3038 18.6752Z" fill="#DA1F27"/>
<path d="M31.0865 26.775C31.0595 26.775 31.0325 26.775 31.0055 26.766C30.6365 26.802 30.2585 26.541 30.2225 26.172C30.1865 25.803 30.4115 25.47 30.7805 25.425C30.8885 25.416 31.0055 25.416 31.1045 25.416C32.4185 25.344 33.4445 24.264 33.4445 22.941C33.4445 21.573 32.3375 20.466 30.9695 20.466C30.6005 20.475 30.2945 20.169 30.2945 19.8C30.2945 19.431 30.6005 19.125 30.9695 19.125C33.0755 19.125 34.7945 20.844 34.7945 22.95C34.7945 25.02 33.1745 26.694 31.1135 26.775C31.1045 26.775 31.0955 26.775 31.0865 26.775Z" fill="#DA1F27"/>
<path d="M24.4536 36.4948C22.6896 36.4948 20.9166 36.0448 19.5756 35.1448C18.3246 34.3168 17.6406 33.1828 17.6406 31.9498C17.6406 30.7168 18.3246 29.5738 19.5756 28.7368C22.2756 26.9458 26.6496 26.9458 29.3316 28.7368C30.5736 29.5648 31.2666 30.6988 31.2666 31.9318C31.2666 33.1648 30.5826 34.3078 29.3316 35.1448C27.9816 36.0448 26.2176 36.4948 24.4536 36.4948ZM20.3226 29.8708C19.4586 30.4468 18.9906 31.1848 18.9906 31.9588C18.9906 32.7238 19.4676 33.4618 20.3226 34.0288C22.5636 35.5318 26.3436 35.5318 28.5846 34.0288C29.4486 33.4528 29.9166 32.7148 29.9166 31.9408C29.9166 31.1758 29.4396 30.4378 28.5846 29.8708C26.3436 28.3768 22.5636 28.3768 20.3226 29.8708Z" fill="#DA1F27"/>
<path d="M32.7091 34.8752C32.3941 34.8752 32.1151 34.6592 32.0521 34.3352C31.9801 33.9662 32.2141 33.6152 32.5741 33.5342C33.1411 33.4172 33.6631 33.1922 34.0681 32.8772C34.5811 32.4902 34.8601 32.0042 34.8601 31.4912C34.8601 30.9782 34.5811 30.4922 34.0771 30.1142C33.6811 29.8082 33.1861 29.5922 32.6011 29.4572C32.2411 29.3762 32.0071 29.0162 32.0881 28.6472C32.1691 28.2872 32.5291 28.0532 32.8981 28.1342C33.6721 28.3052 34.3471 28.6112 34.8961 29.0342C35.7331 29.6642 36.2101 30.5552 36.2101 31.4912C36.2101 32.4272 35.7241 33.3182 34.8871 33.9572C34.3291 34.3892 33.6271 34.7042 32.8531 34.8572C32.7991 34.8752 32.7541 34.8752 32.7091 34.8752Z" fill="#DA1F27"/>
</svg>
