<svg width="24" height="25" viewBox="0 0 24 25" fill="none" xmlns="http://www.w3.org/2000/svg">
<path d="M8.5 19.1113H8C4 19.1113 2 18.1113 2 13.1113V8.11133C2 4.11133 4 2.11133 8 2.11133H16C20 2.11133 22 4.11133 22 8.11133V13.1113C22 17.1113 20 19.1113 16 19.1113H15.5C15.19 19.1113 14.89 19.2613 14.7 19.5113L13.2 21.5113C12.54 22.3913 11.46 22.3913 10.8 21.5113L9.3 19.5113C9.14 19.2913 8.77 19.1113 8.5 19.1113Z" stroke="#1F2C43" stroke-width="1.5" stroke-miterlimit="10" stroke-linecap="round" stroke-linejoin="round"/>
<path d="M7 8.11133H17" stroke="#1F2C43" stroke-width="1.5" stroke-linecap="round" stroke-linejoin="round"/>
<path d="M7 13.1113H13" stroke="#1F2C43" stroke-width="1.5" stroke-linecap="round" stroke-linejoin="round"/>
</svg>
