<svg width="54" height="54" viewBox="0 0 54 54" fill="none" xmlns="http://www.w3.org/2000/svg">
<rect width="54" height="54" rx="27" fill="#F1F2F4"/>
<path d="M30.6 36.6751H23.4C20.682 36.6751 19.125 35.1181 19.125 32.4001V23.6251C19.125 20.7901 20.565 19.3501 23.4 19.3501C23.769 19.3501 24.075 19.6561 24.075 20.0251C24.075 20.3851 24.219 20.7271 24.471 20.9791C24.723 21.2311 25.065 21.3751 25.425 21.3751H28.575C29.322 21.3751 29.925 20.7721 29.925 20.0251C29.925 19.6561 30.231 19.3501 30.6 19.3501C33.435 19.3501 34.875 20.7901 34.875 23.6251V32.4001C34.875 35.1181 33.318 36.6751 30.6 36.6751ZM22.815 20.7181C21.393 20.8351 20.475 21.4741 20.475 23.6251V32.4001C20.475 34.3981 21.402 35.3251 23.4 35.3251H30.6C32.598 35.3251 33.525 34.3981 33.525 32.4001V23.6251C33.525 21.4741 32.607 20.8441 31.185 20.7181C30.879 21.8701 29.826 22.7251 28.575 22.7251H25.425C24.705 22.7251 24.03 22.4461 23.517 21.9331C23.175 21.5911 22.941 21.1771 22.815 20.7181Z" fill="#DA1F27"/>
<path d="M28.5766 22.7252H25.4266C24.7066 22.7252 24.0316 22.4462 23.5186 21.9332C23.0056 21.4202 22.7266 20.7452 22.7266 20.0252C22.7266 18.5402 23.9416 17.3252 25.4266 17.3252H28.5766C29.2966 17.3252 29.9716 17.6042 30.4846 18.1172C30.9976 18.6302 31.2766 19.3052 31.2766 20.0252C31.2766 21.5102 30.0616 22.7252 28.5766 22.7252ZM25.4266 18.6752C24.6796 18.6752 24.0766 19.2782 24.0766 20.0252C24.0766 20.3852 24.2206 20.7272 24.4726 20.9792C24.7246 21.2312 25.0666 21.3752 25.4266 21.3752H28.5766C29.3236 21.3752 29.9266 20.7722 29.9266 20.0252C29.9266 19.6652 29.7826 19.3232 29.5306 19.0712C29.2786 18.8192 28.9366 18.6752 28.5766 18.6752H25.4266Z" fill="#DA1F27"/>
<path d="M27.0016 28.5751H23.4016C23.0326 28.5751 22.7266 28.2691 22.7266 27.9001C22.7266 27.5311 23.0326 27.2251 23.4016 27.2251H27.0016C27.3706 27.2251 27.6766 27.5311 27.6766 27.9001C27.6766 28.2691 27.3706 28.5751 27.0016 28.5751Z" fill="#DA1F27"/>
<path d="M30.6016 32.1752H23.4016C23.0326 32.1752 22.7266 31.8692 22.7266 31.5002C22.7266 31.1312 23.0326 30.8252 23.4016 30.8252H30.6016C30.9706 30.8252 31.2766 31.1312 31.2766 31.5002C31.2766 31.8692 30.9706 32.1752 30.6016 32.1752Z" fill="#DA1F27"/>
</svg>
