<svg width="54" height="54" viewBox="0 0 54 54" fill="none" xmlns="http://www.w3.org/2000/svg">
<rect width="54" height="54" rx="27" fill="#F1F2F4"/>
<path d="M22.3937 33.2101C22.0247 33.2101 21.7188 32.9041 21.7188 32.5351V30.6721C21.7188 30.3031 22.0247 29.9971 22.3937 29.9971C22.7627 29.9971 23.0687 30.3031 23.0687 30.6721V32.5351C23.0687 32.9131 22.7627 33.2101 22.3937 33.2101Z" fill="#DA1F27"/>
<path d="M27.0031 33.21C26.6341 33.21 26.3281 32.904 26.3281 32.535V28.8C26.3281 28.431 26.6341 28.125 27.0031 28.125C27.3721 28.125 27.6781 28.431 27.6781 28.8V32.535C27.6781 32.913 27.3721 33.21 27.0031 33.21Z" fill="#DA1F27"/>
<path d="M31.6125 33.2097C31.2435 33.2097 30.9375 32.9037 30.9375 32.5347V26.9367C30.9375 26.5677 31.2435 26.2617 31.6125 26.2617C31.9815 26.2617 32.2875 26.5677 32.2875 26.9367V32.5347C32.2875 32.9127 31.9905 33.2097 31.6125 33.2097Z" fill="#DA1F27"/>
<path d="M22.3961 28.0619C22.0901 28.0619 21.8201 27.8549 21.7391 27.5489C21.6491 27.1889 21.8651 26.8199 22.2341 26.7299C25.5461 25.9019 28.4621 24.0929 30.6851 21.5099L31.0991 21.0239C31.3421 20.7449 31.7651 20.7089 32.0531 20.9519C32.3321 21.1949 32.3681 21.6179 32.1251 21.9059L31.7111 22.3919C29.3081 25.1999 26.1401 27.1529 22.5581 28.0439C22.5041 28.0619 22.4501 28.0619 22.3961 28.0619Z" fill="#DA1F27"/>
<path d="M31.6089 24.768C31.2399 24.768 30.9339 24.462 30.9339 24.093V22.14H28.9719C28.6029 22.14 28.2969 21.834 28.2969 21.465C28.2969 21.096 28.6029 20.79 28.9719 20.79H31.6089C31.9779 20.79 32.2839 21.096 32.2839 21.465V24.102C32.2839 24.471 31.9869 24.768 31.6089 24.768Z" fill="#DA1F27"/>
<path d="M29.7031 36.6752H24.3031C19.4161 36.6752 17.3281 34.5872 17.3281 29.7002V24.3002C17.3281 19.4132 19.4161 17.3252 24.3031 17.3252H29.7031C34.5901 17.3252 36.6781 19.4132 36.6781 24.3002V29.7002C36.6781 34.5872 34.5901 36.6752 29.7031 36.6752ZM24.3031 18.6752C20.1541 18.6752 18.6781 20.1512 18.6781 24.3002V29.7002C18.6781 33.8492 20.1541 35.3252 24.3031 35.3252H29.7031C33.8521 35.3252 35.3281 33.8492 35.3281 29.7002V24.3002C35.3281 20.1512 33.8521 18.6752 29.7031 18.6752H24.3031Z" fill="#DA1F27"/>
</svg>
