<svg width="54" height="54" viewBox="0 0 54 54" fill="none" xmlns="http://www.w3.org/2000/svg">
<rect width="54" height="54" rx="27" fill="#F1F2F4"/>
<path d="M29.4304 36.675H24.5704C20.1244 36.675 18.2344 34.776 18.2344 30.339V26.298C18.2344 25.929 18.5404 25.623 18.9094 25.623C19.2784 25.623 19.5844 25.929 19.5844 26.298V30.339C19.5844 34.02 20.8894 35.325 24.5704 35.325H29.4214C33.1024 35.325 34.4074 34.02 34.4074 30.339V26.298C34.4074 25.929 34.7134 25.623 35.0824 25.623C35.4514 25.623 35.7574 25.929 35.7574 26.298V30.339C35.7664 34.776 33.8674 36.675 29.4304 36.675Z" fill="#DA1F27"/>
<path d="M27.0019 27.6752C26.0119 27.6752 25.1119 27.2882 24.4729 26.5772C23.8339 25.8662 23.5369 24.9392 23.6359 23.9492L24.2389 17.9372C24.2749 17.5952 24.5629 17.3252 24.9139 17.3252H29.1169C29.4679 17.3252 29.7559 17.5862 29.7919 17.9372L30.3949 23.9492C30.4939 24.9392 30.1969 25.8662 29.5579 26.5772C28.8919 27.2882 27.9919 27.6752 27.0019 27.6752ZM25.5169 18.6752L24.9769 24.0842C24.9139 24.6872 25.0939 25.2542 25.4719 25.6682C26.2369 26.5142 27.7669 26.5142 28.5319 25.6682C28.9099 25.2452 29.0899 24.6782 29.0269 24.0842L28.4869 18.6752H25.5169Z" fill="#DA1F27"/>
<path d="M32.6843 27.6752C30.8573 27.6752 29.2283 26.1992 29.0393 24.3812L28.4093 18.0722C28.3913 17.8832 28.4543 17.6942 28.5803 17.5502C28.7063 17.4062 28.8863 17.3252 29.0843 17.3252H31.8293C34.4753 17.3252 35.7083 18.4322 36.0773 21.1502L36.3293 23.6522C36.4373 24.7142 36.1133 25.7222 35.4203 26.4872C34.7273 27.2522 33.7553 27.6752 32.6843 27.6752ZM29.8313 18.6752L30.3893 24.2462C30.5063 25.3712 31.5503 26.3252 32.6843 26.3252C33.3683 26.3252 33.9803 26.0642 34.4213 25.5872C34.8533 25.1102 35.0513 24.4712 34.9883 23.7872L34.7363 21.3122C34.4573 19.2782 33.8003 18.6752 31.8293 18.6752H29.8313Z" fill="#DA1F27"/>
<path d="M21.2826 27.6752C20.2116 27.6752 19.2396 27.2522 18.5466 26.4872C17.8536 25.7222 17.5296 24.7142 17.6376 23.6522L17.8806 21.1772C18.2586 18.4322 19.4916 17.3252 22.1376 17.3252H24.8826C25.0716 17.3252 25.2516 17.4062 25.3866 17.5502C25.5216 17.6942 25.5756 17.8832 25.5576 18.0722L24.9276 24.3812C24.7386 26.1992 23.1096 27.6752 21.2826 27.6752ZM22.1376 18.6752C20.1666 18.6752 19.5096 19.2692 19.2216 21.3302L18.9786 23.7872C18.9066 24.4712 19.1136 25.1102 19.5456 25.5872C19.9776 26.0642 20.5896 26.3252 21.2826 26.3252C22.4166 26.3252 23.4696 25.3712 23.5776 24.2462L24.1356 18.6752H22.1376Z" fill="#DA1F27"/>
<path d="M29.2531 36.6752H24.7531C24.3841 36.6752 24.0781 36.3692 24.0781 36.0002V33.7502C24.0781 31.8602 25.1131 30.8252 27.0031 30.8252C28.8931 30.8252 29.9281 31.8602 29.9281 33.7502V36.0002C29.9281 36.3692 29.6221 36.6752 29.2531 36.6752ZM25.4281 35.3252H28.5781V33.7502C28.5781 32.6162 28.1371 32.1752 27.0031 32.1752C25.8691 32.1752 25.4281 32.6162 25.4281 33.7502V35.3252Z" fill="#DA1F27"/>
</svg>
