<svg width="54" height="54" viewBox="0 0 54 54" fill="none" xmlns="http://www.w3.org/2000/svg">
<rect width="54" height="54" rx="27" fill="#F1F2F4"/>
<path d="M31.4162 33.309C31.1372 33.309 30.8582 33.228 30.6152 33.066L29.7513 32.499C29.5083 32.337 29.3913 32.031 29.4723 31.752C29.5353 31.545 29.5622 31.302 29.5622 31.032V27.369C29.5622 25.902 28.6443 24.984 27.1773 24.984H21.0662C20.9582 24.984 20.8592 24.993 20.7602 25.002C20.5712 25.011 20.3913 24.948 20.2473 24.822C20.1033 24.696 20.0312 24.516 20.0312 24.327V21.834C20.0312 19.188 21.8852 17.334 24.5312 17.334H32.1812C34.8272 17.334 36.6812 19.188 36.6812 21.834V26.424C36.6812 27.729 36.2402 28.8809 35.4302 29.6729C34.7822 30.3299 33.8822 30.753 32.8562 30.879V31.878C32.8562 32.418 32.5592 32.904 32.0912 33.156C31.8752 33.255 31.6412 33.309 31.4162 33.309ZM30.8763 31.617L31.4612 31.95C31.5152 31.923 31.5152 31.8779 31.5152 31.8689V30.24C31.5152 29.871 31.8212 29.565 32.1902 29.565C33.1352 29.565 33.9362 29.268 34.4852 28.71C35.0522 28.152 35.3402 27.36 35.3402 26.415V21.825C35.3402 19.908 34.1072 18.675 32.1902 18.675H24.5402C22.6232 18.675 21.3902 19.908 21.3902 21.825V23.625H27.1862C29.3822 23.625 30.9213 25.164 30.9213 27.36V31.0229C30.9123 31.2299 30.9033 31.428 30.8763 31.617Z" fill="#DA1F27"/>
<path d="M21.6661 36.675C21.4681 36.675 21.2611 36.63 21.0721 36.531C20.6491 36.306 20.3881 35.874 20.3881 35.388V34.704C19.5961 34.578 18.8941 34.245 18.3721 33.723C17.6881 33.039 17.3281 32.103 17.3281 31.023V27.36C17.3281 25.326 18.6601 23.832 20.6401 23.643C20.7841 23.634 20.9191 23.625 21.0631 23.625H27.1741C29.3701 23.625 30.9091 25.164 30.9091 27.36V31.023C30.9091 31.419 30.8641 31.788 30.7651 32.121C30.3601 33.741 28.9831 34.758 27.1741 34.758H24.9331L22.3861 36.45C22.1701 36.603 21.9181 36.675 21.6661 36.675ZM21.0631 24.975C20.9551 24.975 20.8561 24.984 20.7571 24.993C19.4611 25.11 18.6781 26.001 18.6781 27.36V31.023C18.6781 31.743 18.9031 32.346 19.3261 32.769C19.7401 33.183 20.3431 33.408 21.0631 33.408C21.4321 33.408 21.7381 33.714 21.7381 34.083V35.262L24.3481 33.525C24.4561 33.453 24.5911 33.408 24.7261 33.408H27.1741C28.3621 33.408 29.1991 32.814 29.4601 31.77C29.5231 31.545 29.5591 31.293 29.5591 31.023V27.36C29.5591 25.893 28.6411 24.975 27.1741 24.975H21.0631Z" fill="#DA1F27"/>
</svg>
