<svg width="54" height="54" viewBox="0 0 54 54" fill="none" xmlns="http://www.w3.org/2000/svg">
<rect width="54" height="54" rx="27" fill="#F1F2F4"/>
<path d="M27 28.1703C26.883 28.1703 26.766 28.1433 26.658 28.0803L18.711 23.4813C18.387 23.2923 18.279 22.8783 18.468 22.5543C18.657 22.2303 19.062 22.1223 19.395 22.3113L27 26.7123L34.56 22.3383C34.884 22.1493 35.298 22.2663 35.487 22.5813C35.676 22.9053 35.559 23.3193 35.244 23.5083L27.351 28.0803C27.234 28.1343 27.117 28.1703 27 28.1703Z" fill="#DA1F27"/>
<path d="M27.0031 36.324C26.6341 36.324 26.3281 36.018 26.3281 35.649V27.486C26.3281 27.117 26.6341 26.811 27.0031 26.811C27.3721 26.811 27.6781 27.117 27.6781 27.486V35.649C27.6781 36.018 27.3721 36.324 27.0031 36.324Z" fill="#DA1F27"/>
<path d="M27.0037 36.6752C26.2117 36.6752 25.4287 36.5042 24.8077 36.1622L20.0017 33.4892C18.6967 32.7692 17.6797 31.0322 17.6797 29.5382V24.4532C17.6797 22.9592 18.6967 21.2312 20.0017 20.5022L24.8077 17.8382C26.0407 17.1542 27.9667 17.1542 29.1997 17.8382L34.0057 20.5112C35.3107 21.2312 36.3277 22.9682 36.3277 24.4622V29.5472C36.3277 31.0412 35.3107 32.7692 34.0057 33.4982L29.1997 36.1622C28.5787 36.5042 27.7957 36.6752 27.0037 36.6752ZM27.0037 18.6752C26.4367 18.6752 25.8787 18.7922 25.4647 19.0172L20.6587 21.6902C19.7947 22.1762 19.0297 23.4632 19.0297 24.4622V29.5472C19.0297 30.5372 19.7947 31.8332 20.6587 32.3192L25.4647 34.9922C26.2837 35.4512 27.7237 35.4512 28.5427 34.9922L33.3487 32.3192C34.2127 31.8332 34.9777 30.5462 34.9777 29.5472V24.4622C34.9777 23.4722 34.2127 22.1762 33.3487 21.6902L28.5427 19.0172C28.1287 18.7922 27.5707 18.6752 27.0037 18.6752Z" fill="#DA1F27"/>
<path d="M31.5003 28.791C31.1313 28.791 30.8253 28.485 30.8253 28.116V25.218L22.6173 20.484C22.2933 20.295 22.1852 19.881 22.3742 19.566C22.5632 19.242 22.9683 19.134 23.2923 19.323L31.8333 24.255C32.0403 24.372 32.1753 24.597 32.1753 24.84V28.134C32.1753 28.485 31.8693 28.791 31.5003 28.791Z" fill="#DA1F27"/>
</svg>
