<svg width="54" height="54" viewBox="0 0 54 54" fill="none" xmlns="http://www.w3.org/2000/svg">
<rect width="54" height="54" rx="27" fill="#F1F2F4"/>
<path d="M27.0031 36.6752C21.6661 36.6752 17.3281 32.3372 17.3281 27.0002C17.3281 21.6632 21.6661 17.3252 27.0031 17.3252C32.3401 17.3252 36.6781 21.6632 36.6781 27.0002C36.6781 32.3372 32.3401 36.6752 27.0031 36.6752ZM27.0031 18.6752C22.4131 18.6752 18.6781 22.4102 18.6781 27.0002C18.6781 31.5902 22.4131 35.3252 27.0031 35.3252C31.5931 35.3252 35.3281 31.5902 35.3281 27.0002C35.3281 22.4102 31.5931 18.6752 27.0031 18.6752Z" fill="#DA1F27"/>
<path d="M24.3059 35.7756H23.4059C23.0369 35.7756 22.7309 35.4696 22.7309 35.1006C22.7309 34.7316 23.0189 34.4346 23.3879 34.4256C21.9749 29.6016 21.9749 24.3996 23.3879 19.5756C23.0189 19.5666 22.7309 19.2696 22.7309 18.9006C22.7309 18.5316 23.0369 18.2256 23.4059 18.2256H24.3059C24.5219 18.2256 24.7289 18.3336 24.8549 18.5046C24.9809 18.6846 25.0169 18.9096 24.9449 19.1166C23.2529 24.2016 23.2529 29.7996 24.9449 34.8936C25.0169 35.1006 24.9809 35.3256 24.8549 35.5056C24.7289 35.6676 24.5219 35.7756 24.3059 35.7756Z" fill="#DA1F27"/>
<path d="M29.7006 35.7754C29.6286 35.7754 29.5566 35.7664 29.4846 35.7394C29.1336 35.6224 28.9356 35.2354 29.0616 34.8844C30.7536 29.7994 30.7536 24.2014 29.0616 19.1074C28.9446 18.7564 29.1336 18.3694 29.4846 18.2524C29.8446 18.1354 30.2226 18.3244 30.3396 18.6754C32.1306 24.0394 32.1306 29.9434 30.3396 35.2984C30.2496 35.5954 29.9796 35.7754 29.7006 35.7754Z" fill="#DA1F27"/>
<path d="M27.0016 31.6801C24.4906 31.6801 21.9886 31.3291 19.5766 30.6181C19.5676 30.9781 19.2706 31.2751 18.9016 31.2751C18.5326 31.2751 18.2266 30.9691 18.2266 30.6001V29.7001C18.2266 29.4841 18.3346 29.2771 18.5056 29.1511C18.6856 29.0251 18.9106 28.9891 19.1176 29.0611C24.2026 30.7531 29.8096 30.7531 34.8946 29.0611C35.1016 28.9891 35.3266 29.0251 35.5066 29.1511C35.6866 29.2771 35.7856 29.4841 35.7856 29.7001V30.6001C35.7856 30.9691 35.4796 31.2751 35.1106 31.2751C34.7416 31.2751 34.4446 30.9871 34.4356 30.6181C32.0146 31.3291 29.5126 31.6801 27.0016 31.6801Z" fill="#DA1F27"/>
<path d="M35.1049 24.9756C35.0329 24.9756 34.9609 24.9666 34.8889 24.9396C29.8039 23.2476 24.1969 23.2476 19.1119 24.9396C18.7519 25.0566 18.3739 24.8676 18.2569 24.5166C18.1489 24.1566 18.3379 23.7786 18.6889 23.6616C24.0529 21.8706 29.9569 21.8706 35.3119 23.6616C35.6629 23.7786 35.8609 24.1656 35.7349 24.5166C35.6539 24.7956 35.3839 24.9756 35.1049 24.9756Z" fill="#DA1F27"/>
</svg>
