<svg width="54" height="54" viewBox="0 0 54 54" fill="none" xmlns="http://www.w3.org/2000/svg">
<rect width="54" height="54" rx="27" fill="#F1F2F4"/>
<path d="M27 30.375C25.137 30.375 23.625 28.863 23.625 27C23.625 25.137 25.137 23.625 27 23.625C28.863 23.625 30.375 25.137 30.375 27C30.375 28.863 28.863 30.375 27 30.375ZM27 24.975C25.884 24.975 24.975 25.884 24.975 27C24.975 28.116 25.884 29.025 27 29.025C28.116 29.025 29.025 28.116 29.025 27C29.025 25.884 28.116 24.975 27 24.975Z" fill="#DA1F27"/>
<path d="M29.8921 36.1711C29.7031 36.1711 29.5141 36.1441 29.3251 36.0991C28.7671 35.9461 28.2991 35.5951 28.0021 35.1001L27.8941 34.9201C27.3631 34.0021 26.6341 34.0021 26.1031 34.9201L26.0041 35.0911C25.7071 35.5951 25.2391 35.9551 24.6811 36.0991C24.1141 36.2521 23.5291 36.1711 23.0341 35.8741L21.4861 34.9831C20.9371 34.6681 20.5411 34.1551 20.3701 33.5341C20.2081 32.9131 20.2891 32.2741 20.6041 31.7251C20.8651 31.2661 20.9371 30.8521 20.7841 30.5911C20.6311 30.3301 20.2441 30.1771 19.7131 30.1771C18.3991 30.1771 17.3281 29.1061 17.3281 27.7921V26.2081C17.3281 24.8941 18.3991 23.8231 19.7131 23.8231C20.2441 23.8231 20.6311 23.6701 20.7841 23.4091C20.9371 23.1481 20.8741 22.7341 20.6041 22.2751C20.2891 21.7261 20.2081 21.0781 20.3701 20.4661C20.5321 19.8451 20.9281 19.3321 21.4861 19.0171L23.0431 18.1261C24.0601 17.5231 25.4011 17.8741 26.0131 18.9091L26.1211 19.0891C26.6521 20.0071 27.3811 20.0071 27.9121 19.0891L28.0111 18.9181C28.6231 17.8741 29.9641 17.5231 30.9901 18.1351L32.5381 19.0261C33.0871 19.3411 33.4831 19.8541 33.6541 20.4751C33.8161 21.0961 33.7351 21.7351 33.4201 22.2841C33.1591 22.7431 33.0871 23.1571 33.2401 23.4181C33.3931 23.6791 33.7801 23.8321 34.3111 23.8321C35.6251 23.8321 36.6961 24.9031 36.6961 26.2171V27.8011C36.6961 29.1151 35.6251 30.1861 34.3111 30.1861C33.7801 30.1861 33.3931 30.3391 33.2401 30.6001C33.0871 30.8611 33.1501 31.2751 33.4201 31.7341C33.7351 32.2831 33.8251 32.9311 33.6541 33.5431C33.4921 34.1641 33.0961 34.6771 32.5381 34.9921L30.9811 35.8831C30.6391 36.0721 30.2701 36.1711 29.8921 36.1711ZM27.0031 32.8411C27.8041 32.8411 28.5511 33.3451 29.0641 34.2361L29.1631 34.4071C29.2711 34.5961 29.4511 34.7311 29.6671 34.7851C29.8831 34.8391 30.0991 34.8121 30.2791 34.7041L31.8361 33.8041C32.0701 33.6691 32.2501 33.4441 32.3221 33.1741C32.3941 32.9041 32.3581 32.6251 32.2231 32.3911C31.7101 31.5091 31.6471 30.6001 32.0431 29.9071C32.4391 29.2141 33.2581 28.8181 34.2841 28.8181C34.8601 28.8181 35.3191 28.3591 35.3191 27.7831V26.1991C35.3191 25.6321 34.8601 25.1641 34.2841 25.1641C33.2581 25.1641 32.4391 24.7681 32.0431 24.0751C31.6471 23.3821 31.7101 22.4731 32.2231 21.5911C32.3581 21.3571 32.3941 21.0781 32.3221 20.8081C32.2501 20.5381 32.0791 20.3221 31.8451 20.1781L30.2881 19.2871C29.9011 19.0531 29.3881 19.1881 29.1541 19.5841L29.0551 19.7551C28.5421 20.6461 27.7951 21.1501 26.9941 21.1501C26.1931 21.1501 25.4461 20.6461 24.9331 19.7551L24.8341 19.5751C24.6091 19.1971 24.1051 19.0621 23.7181 19.2871L22.1611 20.1871C21.9271 20.3221 21.7471 20.5471 21.6751 20.8171C21.6031 21.0871 21.6391 21.3661 21.7741 21.6001C22.2871 22.4821 22.3501 23.3911 21.9541 24.0841C21.5581 24.7771 20.7391 25.1731 19.7131 25.1731C19.1371 25.1731 18.6781 25.6321 18.6781 26.2081V27.7921C18.6781 28.3591 19.1371 28.8271 19.7131 28.8271C20.7391 28.8271 21.5581 29.2231 21.9541 29.9161C22.3501 30.6091 22.2871 31.5181 21.7741 32.4001C21.6391 32.6341 21.6031 32.9131 21.6751 33.1831C21.7471 33.4531 21.9181 33.6691 22.1521 33.8131L23.7091 34.7041C23.8981 34.8211 24.1231 34.8481 24.3301 34.7941C24.5461 34.7401 24.7261 34.5961 24.8431 34.4071L24.9421 34.2361C25.4551 33.3541 26.2021 32.8411 27.0031 32.8411Z" fill="#DA1F27"/>
</svg>
