<svg width="14" height="14" viewBox="0 0 14 14" fill="none" xmlns="http://www.w3.org/2000/svg">
<path d="M12.25 3.48796C10.3075 3.29546 8.35333 3.19629 6.405 3.19629C5.25 3.19629 4.095 3.25462 2.94 3.37129L1.75 3.48796" fill="#DA1F27"/>
<path d="M12.25 3.48796C10.3075 3.29546 8.35333 3.19629 6.405 3.19629C5.25 3.19629 4.095 3.25462 2.94 3.37129L1.75 3.48796" stroke="#DA1F27" stroke-linecap="round" stroke-linejoin="round"/>
<path d="M4.96094 2.89949L5.08927 2.13533C5.1826 1.58116 5.2526 1.16699 6.23844 1.16699L7.76677 1.16699C8.7526 1.16699 8.82844 1.60449 8.91594 2.14116L9.04427 2.89949" stroke="#DA1F27" stroke-linecap="round" stroke-linejoin="round"/>
<path d="M10.9995 5.33106L10.6203 11.2052C10.5561 12.1211 10.5036 12.8327 8.87614 12.8327L5.13114 12.8327C3.50364 12.8327 3.45114 12.1211 3.38698 11.2052L3.00781 5.33105" stroke="#DA1F27" stroke-linecap="round" stroke-linejoin="round"/>
<path d="M6.02344 9.625L7.96594 9.625" stroke="#DA1F27" stroke-linecap="round" stroke-linejoin="round"/>
<path d="M5.53906 7.29199L8.45573 7.29199" stroke="#DA1F27" stroke-linecap="round" stroke-linejoin="round"/>
</svg>
