<svg width="25" height="24" viewBox="0 0 25 24" fill="none" xmlns="http://www.w3.org/2000/svg">
<rect x="0.5" width="24" height="24" rx="4" fill="#0CAF60"/>
<path d="M12.5039 14.8866C10.9105 14.8866 9.61719 13.5933 9.61719 11.9999C9.61719 10.4066 10.9105 9.11328 12.5039 9.11328C14.0972 9.11328 15.3905 10.4066 15.3905 11.9999C15.3905 13.5933 14.0972 14.8866 12.5039 14.8866ZM12.5039 10.1133C11.4639 10.1133 10.6172 10.9599 10.6172 11.9999C10.6172 13.0399 11.4639 13.8866 12.5039 13.8866C13.5439 13.8866 14.3905 13.0399 14.3905 11.9999C14.3905 10.9599 13.5439 10.1133 12.5039 10.1133Z" fill="white"/>
<path d="M12.4988 18.013C9.99208 18.013 7.62542 16.5463 5.99875 13.9997C5.29208 12.8997 5.29208 11.1063 5.99875 9.99966C7.63208 7.45299 9.99875 5.98633 12.4988 5.98633C14.9988 5.98633 17.3654 7.45299 18.9921 9.99966C19.6988 11.0997 19.6988 12.893 18.9921 13.9997C17.3654 16.5463 14.9988 18.013 12.4988 18.013ZM12.4988 6.98633C10.3454 6.98633 8.28542 8.27966 6.84542 10.5397C6.34542 11.3197 6.34542 12.6797 6.84542 13.4597C8.28542 15.7197 10.3454 17.013 12.4988 17.013C14.6521 17.013 16.7121 15.7197 18.1521 13.4597C18.6521 12.6797 18.6521 11.3197 18.1521 10.5397C16.7121 8.27966 14.6521 6.98633 12.4988 6.98633Z" fill="white"/>
</svg>
